<svg width="18" height="18" viewBox="0 0 18 18" fill="none" xmlns="http://www.w3.org/2000/svg">
<path d="M10.7576 14.7389L11.1959 16.1734C10.5014 16.3858 9.76404 16.5 9 16.5L8.79642 16.4973L8.59418 16.4892L8.67407 14.9913C8.78225 14.9971 8.89091 15 9 15C9.60366 15 10.1937 14.9113 10.7576 14.7389ZM5.51738 13.8865C6.11151 14.3109 6.7777 14.6238 7.48622 14.8078L7.10953 16.2597C6.21197 16.0266 5.37973 15.6315 4.64591 15.1074L5.51738 13.8865ZM13.5815 12.8745L14.7263 13.8438C14.1379 14.5387 13.4252 15.1251 12.6227 15.5686L11.8973 14.2557C12.5372 13.902 13.1085 13.4331 13.5815 12.8745ZM3.43407 11.2459C3.70784 11.9236 4.10451 12.5458 4.6024 13.0819L3.50369 14.103C2.88649 13.4386 2.38832 12.6621 2.04309 11.8073L3.43407 11.2459ZM9.75 5V8.25H13V9.75H9.749L9.75 13H8.25L8.249 9.75H5V8.25H8.25V5H9.75ZM14.9521 9.76285L16.4403 9.95092C16.323 10.878 16.0365 11.7522 15.6127 12.5418L14.291 11.8325C14.635 11.1916 14.8598 10.4926 14.9521 9.76285ZM1.6218 7.64654L3.09757 7.91511C3.03285 8.27004 3 8.63255 3 9C3 9.35233 3.03021 9.70013 3.08974 10.0411L1.61218 10.2995C1.53844 9.87742 1.5 9.4432 1.5 9L1.50778 8.65531C1.52328 8.31256 1.56179 7.9758 1.6218 7.64654ZM15.8187 5.8722C16.1915 6.68369 16.4238 7.57317 16.4842 8.50944L14.9873 8.60575C14.9397 7.86886 14.7586 7.15766 14.4555 6.49805L15.8187 5.8722ZM3.50369 3.89696L4.60241 4.91814C4.10444 5.45431 3.70774 6.07656 3.43396 6.75432L2.04309 6.19266C2.38832 5.33795 2.88649 4.56141 3.50369 3.89696ZM13.0501 2.6865C13.8195 3.1811 14.4926 3.81251 15.0351 4.54636L13.8285 5.43755C13.3935 4.84917 12.8541 4.34362 12.2388 3.94814L13.0501 2.6865ZM7.11958 1.73768L7.49445 3.19008C6.78559 3.37311 6.11894 3.68501 5.5242 4.10858L4.6538 2.88695C5.38843 2.36371 6.22139 1.96958 7.11958 1.73768ZM9 1.5L9.35139 1.50809C10.0501 1.54031 10.7239 1.66816 11.36 1.87883L11.6748 1.99102L11.1399 3.3924C10.5601 3.17099 9.94734 3.04085 9.31672 3.00818L9 3L8.83309 3.00235L8.66687 3.00905L8.5852 1.51128L8.75727 1.50385L9 1.5Z" fill="black" />
</svg>
