<svg width="18" height="18" viewBox="0 0 18 18" fill="none" xmlns="http://www.w3.org/2000/svg">
<path fill-rule="evenodd" clip-rule="evenodd" d="M12.8109 10H13.3182C15.3516 10 17 11.6484 17 13.6818V14.75C17 14.8881 16.8881 15 16.75 15H14.75V13.9091C14.75 12.3141 13.9893 10.8967 12.8109 10ZM11.7807 8.40497C12.5272 7.7631 13 6.81176 13 5.75C13 4.68824 12.5272 3.7369 11.7807 3.09503C12.01 3.03306 12.2511 3 12.5 3C14.0188 3 15.25 4.23122 15.25 5.75C15.25 7.26878 14.0188 8.5 12.5 8.5C12.2511 8.5 12.01 8.46694 11.7807 8.40497ZM8.68182 10H10.3182C12.3516 10 14 11.6484 14 13.6818V14.75C14 14.8881 13.8881 15 13.75 15H5.25C5.11193 15 5 14.8881 5 14.75V13.6818C5 11.6484 6.64841 10 8.68182 10ZM9.5 8.5C7.98122 8.5 6.75 7.26878 6.75 5.75C6.75 4.23122 7.98122 3 9.5 3C11.0188 3 12.25 4.23122 12.25 5.75C12.25 7.26878 11.0188 8.5 9.5 8.5ZM3 8V6.25062C3 6.1122 3.1177 6 3.24769 6H4.25231C4.3891 6 4.5 6.11488 4.5 6.25062V8H6.24938C6.3878 8 6.5 8.1177 6.5 8.24769V9.25231C6.5 9.3891 6.38512 9.5 6.24938 9.5H4.5V11.2494C4.5 11.3878 4.3823 11.5 4.25231 11.5H3.24769C3.1109 11.5 3 11.3851 3 11.2494V9.5H1.25062C1.1122 9.5 1 9.3823 1 9.25231V8.24769C1 8.1109 1.11488 8 1.25062 8H3Z" fill="black" />
</svg>
