<svg width="18" height="18" viewBox="0 0 18 18" fill="none" xmlns="http://www.w3.org/2000/svg">
<path fill-rule="evenodd" clip-rule="evenodd" d="M9.14258 4.75496C8.94771 4.56009 8.94727 4.24426 9.1416 4.04884L9.49159 3.6969C9.68663 3.50078 10.0038 3.50026 10.1995 3.69574L15.1507 8.64209C15.2498 8.74108 15.2986 8.87131 15.2973 9.0011C15.2986 9.1309 15.2498 9.26112 15.1507 9.36011L10.1995 14.3065C10.0038 14.5019 9.68663 14.5014 9.49159 14.3053L9.1416 13.9534C8.94727 13.7579 8.94771 13.4421 9.14258 13.2472L12.6398 9.75001H3.5C3.22386 9.75001 3 9.52615 3 9.25001V8.75001C3 8.47387 3.22386 8.25001 3.5 8.25001H12.6376L9.14258 4.75496Z" fill="black" />
</svg>
