<svg width="18" height="18" viewBox="0 0 18 18" fill="none" xmlns="http://www.w3.org/2000/svg">
<path fill-rule="evenodd" clip-rule="evenodd" d="M13.3 3.5C13.5761 3.5 13.8 3.72386 13.8 4V14C13.8 14.2761 13.5761 14.5 13.3 14.5H12.8C12.5239 14.5 12.3 14.2761 12.3 14V4C12.3 3.72386 12.5239 3.5 12.8 3.5H13.3ZM5 3.69645C5.17357 3.52288 5.44299 3.50359 5.63786 3.63859L5.70711 3.69645L10.6569 8.64619C10.8304 8.81976 10.8497 9.08918 10.7147 9.28405L10.6569 9.3533L5.70711 14.303C5.53354 14.4766 5.26412 14.4959 5.06925 14.3609L5 14.303L4.64645 13.9495C4.47288 13.7759 4.4536 13.5065 4.58859 13.3116L4.64645 13.2424L8.8893 8.999L4.64645 4.75711C4.47288 4.58354 4.4536 4.31412 4.58859 4.11925L4.64645 4.05L5 3.69645Z" fill="black" />
</svg>
