<svg width="18" height="18" viewBox="0 0 18 18" fill="none" xmlns="http://www.w3.org/2000/svg">
<path fill-rule="evenodd" clip-rule="evenodd" d="M2.5 4H8.5C8.77614 4 9 4.22386 9 4.5V6C9 6.27614 8.77614 6.5 8.5 6.5H2.5C2.22386 6.5 2 6.27614 2 6V4.5C2 4.22386 2.22386 4 2.5 4ZM2.5 8H11.5C11.7761 8 12 8.22386 12 8.5V10C12 10.2761 11.7761 10.5 11.5 10.5H2.5C2.22386 10.5 2 10.2761 2 10V8.5C2 8.22386 2.22386 8 2.5 8ZM2.5 12H15.5C15.7761 12 16 12.2239 16 12.5V14C16 14.2761 15.7761 14.5 15.5 14.5H2.5C2.22386 14.5 2 14.2761 2 14V12.5C2 12.2239 2.22386 12 2.5 12Z" fill="black" />
</svg>
