<svg width="18" height="18" viewBox="0 0 18 18" fill="none" xmlns="http://www.w3.org/2000/svg">
<path fill-rule="evenodd" clip-rule="evenodd" d="M14 12H4V14.5H14V12ZM14 10.5V9.5H4V10.5H14ZM2.5 14.5V9C2.5 8.44772 2.94772 8 3.5 8H8.25V5.75C8.25 5.61193 8.36193 5.5 8.5 5.5H9.5C9.63807 5.5 9.75 5.61193 9.75 5.75V8H14.5C15.0523 8 15.5 8.44772 15.5 9V14.5H16.75C16.8881 14.5 17 14.6119 17 14.75V15.75C17 15.8881 16.8881 16 16.75 16H1.25C1.11193 16 1 15.8881 1 15.75V14.75C1 14.6119 1.11193 14.5 1.25 14.5H2.5ZM8.99998 2.5L9.74965 3.40079C10.0942 3.81481 10.0379 4.42978 9.62388 4.77435C9.44867 4.92016 9.22793 5 8.99998 5C8.46133 5 8.02466 4.56334 8.02466 4.02468C8.02466 3.79674 8.1045 3.57599 8.25032 3.40079L8.99998 2.5Z" fill="black" />
</svg>
