<svg width="18" height="18" viewBox="0 0 18 18" fill="none" xmlns="http://www.w3.org/2000/svg">
<path fill-rule="evenodd" clip-rule="evenodd" d="M13.8889 1.5C14.5025 1.5 15 1.99746 15 2.61111V15.3889C15 16.0025 14.5025 16.5 13.8889 16.5H4.11111C3.49746 16.5 3 16.0025 3 15.3889V2.61111C3 1.99746 3.49746 1.5 4.11111 1.5H13.8889ZM6.5 13H5V14.5H6.5V13ZM9.75 13H8.25V14.5H9.75V13ZM13 13H11.5V14.5H13V13ZM6.5 10.5H5V12H6.5V10.5ZM9.75 10.5H8.25V12H9.75V10.5ZM13 10.5H11.5V12H13V10.5ZM6.5 8H5V9.5H6.5V8ZM9.75 8H8.25V9.5H9.75V8ZM13 8H11.5V9.5H13V8ZM12.7222 3.5H5.27778C5.12437 3.5 5 3.62437 5 3.77778V6.22222C5 6.37563 5.12437 6.5 5.27778 6.5H12.7222C12.8756 6.5 13 6.37563 13 6.22222V3.77778C13 3.62437 12.8756 3.5 12.7222 3.5Z" fill="black" />
</svg>
