<svg width="18" height="18" viewBox="0 0 18 18" fill="none" xmlns="http://www.w3.org/2000/svg">
<path fill-rule="evenodd" clip-rule="evenodd" d="M13.5 4H14.9932C15.5492 4 16 4.45576 16 5.00247V14.9975C16 15.5512 15.5501 16 14.9932 16H3.00685C2.45078 16 2 15.5442 2 14.9975V5.00247C2 4.44882 2.44995 4 3.00685 4H4.5V2.25578C4.5 2.11452 4.6177 2 4.74769 2H5.75231C5.8891 2 6 2.11394 6 2.25578V4H12V2.25578C12 2.11452 12.1177 2 12.2477 2H13.2523C13.3891 2 13.5 2.11394 13.5 2.25578V4ZM3.5 7.5V14.5H14.5V7.5H3.5ZM5.25 9H6.75V10.5H5.25V9ZM8.25 9H9.75V10.5H8.25V9ZM11.25 9H12.75V10.5H11.25V9ZM5.25 11.75H6.75V13.25H5.25V11.75ZM8.25 11.75H9.75V13.25H8.25V11.75ZM11.25 11.75H12.75V13.25H11.25V11.75Z" fill="black" />
</svg>
