<svg width="18" height="18" viewBox="0 0 18 18" fill="none" xmlns="http://www.w3.org/2000/svg">
<path fill-rule="evenodd" clip-rule="evenodd" d="M15 2.5C15.2761 2.5 15.5 2.72386 15.5 3V12.5C15.5 12.7761 15.2761 13 15 13H11.7071C11.5745 13 11.4473 13.0527 11.3536 13.1464L9.35355 15.1464C9.15829 15.3417 8.84171 15.3417 8.64645 15.1464L6.64645 13.1464C6.55268 13.0527 6.4255 13 6.29289 13H3C2.72386 13 2.5 12.7761 2.5 12.5V3C2.5 2.72386 2.72386 2.5 3 2.5H15ZM14 4H4V11.5H7.5L9 13L10.5 11.5H14V4ZM6.125 6.75C6.60825 6.75 7 7.14175 7 7.625C7 8.10825 6.60825 8.5 6.125 8.5C5.64175 8.5 5.25 8.10825 5.25 7.625C5.25 7.14175 5.64175 6.75 6.125 6.75ZM9.005 6.75C9.48825 6.75 9.88 7.14175 9.88 7.625C9.88 8.10825 9.48825 8.5 9.005 8.5C8.52175 8.5 8.13 8.10825 8.13 7.625C8.13 7.14175 8.52175 6.75 9.005 6.75ZM11.875 6.75C12.3582 6.75 12.75 7.14175 12.75 7.625C12.75 8.10825 12.3582 8.5 11.875 8.5C11.3918 8.5 11 8.10825 11 7.625C11 7.14175 11.3918 6.75 11.875 6.75Z" fill="black" />
</svg>
