<svg width="18" height="18" viewBox="0 0 18 18" fill="none" xmlns="http://www.w3.org/2000/svg">
<path fill-rule="evenodd" clip-rule="evenodd" d="M13 13V15.4988C13 15.7756 12.7702 16 12.4988 16H2.50123C2.22441 16 2 15.7702 2 15.4988V5.50123C2 5.22441 2.22975 5 2.50123 5H5V2.50123C5 2.22441 5.22975 2 5.50123 2H15.4988C15.7756 2 16 2.22975 16 2.50123V12.4988C16 12.7756 15.7702 13 15.4988 13H13ZM13 11.5H14.5V3.5H6.5V5H12.4988C12.7756 5 13 5.22975 13 5.50123V11.5ZM3.5 6.5V14.5H11.5V6.5H3.5Z" fill="black" />
</svg>
