<svg width="18" height="18" viewBox="0 0 18 18" fill="none" xmlns="http://www.w3.org/2000/svg">
<path fill-rule="evenodd" clip-rule="evenodd" d="M1.75 13.5H16.25C16.3881 13.5 16.5 13.6119 16.5 13.75V14.75C16.5 14.8881 16.3881 15 16.25 15H1.75C1.61193 15 1.5 14.8881 1.5 14.75V13.75C1.5 13.6119 1.61193 13.5 1.75 13.5ZM8.25 5.5428V4.75C8.25 4.33579 8.58579 4 9 4C9.41421 4 9.75 4.33579 9.75 4.75V5.5428C12.9866 5.91465 15.5 8.66381 15.5 12V12.25C15.5 12.3881 15.3881 12.5 15.25 12.5H2.75C2.61193 12.5 2.5 12.3881 2.5 12.25V12C2.5 8.66381 5.01342 5.91465 8.25 5.5428ZM13.75 11C13.75 8.94866 11.4973 7 9 7C6.50268 7 4.25 8.94866 4.25 11C4.25 11.0028 13.75 11.0028 13.75 11Z" fill="black" />
</svg>
