<svg width="18" height="18" viewBox="0 0 18 18" fill="none" xmlns="http://www.w3.org/2000/svg">
<path fill-rule="evenodd" clip-rule="evenodd" d="M9.75 10.4379V11.5039H11.75C12.0261 11.5039 12.25 11.7278 12.25 12.0039V12.5039C12.25 12.78 12.0261 13.0039 11.75 13.0039H9.75V15.5039C9.75 15.78 9.52614 16.0039 9.25 16.0039H8.75C8.47386 16.0039 8.25 15.78 8.25 15.5039V13.0039H6.25C5.97386 13.0039 5.75 12.78 5.75 12.5039V12.0039C5.75 11.7278 5.97386 11.5039 6.25 11.5039H8.25V10.4379C6.26049 10.0837 4.75 8.3452 4.75 6.25391C4.75 3.9067 6.65279 2.00391 9 2.00391C11.3472 2.00391 13.25 3.9067 13.25 6.25391C13.25 8.3452 11.7395 10.0837 9.75 10.4379ZM9 9.00391C10.5188 9.00391 11.75 7.77269 11.75 6.25391C11.75 4.73512 10.5188 3.50391 9 3.50391C7.48122 3.50391 6.25 4.73512 6.25 6.25391C6.25 7.77269 7.48122 9.00391 9 9.00391Z" fill="black" />
</svg>
