<svg width="18" height="18" viewBox="0 0 18 18" fill="none" xmlns="http://www.w3.org/2000/svg">
<path fill-rule="evenodd" clip-rule="evenodd" d="M9.75 14H12V15.5H9.75V16.5018C9.75 16.777 9.52867 17 9.24217 17H8.75783C8.47736 17 8.25 16.7809 8.25 16.5018V15.5H2.49043C2.21957 15.5 2 15.283 2 14.9945V3.5055C2 3.22632 2.22244 3 2.49043 3H8.25V1.99816C8.25 1.72303 8.47133 1.5 8.75783 1.5H9.24217C9.52264 1.5 9.75 1.71911 9.75 1.99816V3H12V4.5H9.75V14ZM8.25 14V4.5H3.5V14H8.25ZM13.5 3H15.4941C15.7735 3 16 3.22133 16 3.50783V4.5H13.5V3ZM13.5 14H16V14.9922C16 15.2726 15.7693 15.5 15.4941 15.5H13.5V14ZM14.5 6H16V8.5H14.5V6ZM14.5 10H16V12.5H14.5V10Z" fill="black" />
</svg>
