<svg width="18" height="18" viewBox="0 0 18 18" fill="none" xmlns="http://www.w3.org/2000/svg">
<path fill-rule="evenodd" clip-rule="evenodd" d="M9.88056 11.1299L4.39706 16.6134C4.20132 16.8091 3.89008 16.8152 3.69235 16.6175L2.27161 15.1968C2.07815 15.0033 2.08378 14.684 2.27574 14.492L7.75923 9.00856C6.96018 7.33586 7.25338 5.27177 8.63883 3.88632C9.41411 3.11104 10.4043 2.68017 11.4189 2.59074C11.9768 2.54156 12.7197 2.64712 13.0832 2.75247C13.4466 2.85781 13.5886 3.06152 13.6027 3.1085C13.6169 3.15547 13.4887 3.27904 13.4887 3.27904L11.2552 5.51263C11.1724 5.59537 11.176 5.7164 11.2529 5.79327L13.0958 7.63622C13.1738 7.7142 13.2984 7.71207 13.3765 7.63395L15.6101 5.40037C15.6101 5.40037 15.7364 5.27129 15.7806 5.28639C15.8102 5.29648 16.0445 5.5219 16.1474 5.81667C16.2502 6.11143 16.2987 6.48373 16.3168 6.82336C16.3824 8.05519 15.9435 9.30958 15.0028 10.2503C13.6173 11.6357 11.5532 11.9289 9.88056 11.1299Z" fill="black" />
</svg>
