<svg width="18" height="18" viewBox="0 0 18 18" fill="none" xmlns="http://www.w3.org/2000/svg">
<path fill-rule="evenodd" clip-rule="evenodd" d="M6.00342 4H11.9966C12.2671 4 12.5 4.22595 12.5 4.50468V5.49532C12.5 5.78596 12.2746 6 11.9966 6H6.00342C5.7329 6 5.5 5.77405 5.5 5.49532V4.50468C5.5 4.21404 5.72539 4 6.00342 4ZM6.00342 12H11.9966C12.2671 12 12.5 12.226 12.5 12.5047V13.4953C12.5 13.786 12.2746 14 11.9966 14H6.00342C5.7329 14 5.5 13.774 5.5 13.4953V12.5047C5.5 12.214 5.72539 12 6.00342 12ZM3.50035 8H14.4997C14.771 8 15 8.22596 15 8.50468V9.49532C15 9.78596 14.776 10 14.4997 10H3.50035C3.229 10 3 9.77404 3 9.49532V8.50468C3 8.21404 3.22401 8 3.50035 8Z" fill="black" />
</svg>
