<svg width="18" height="18" viewBox="0 0 18 18" fill="none" xmlns="http://www.w3.org/2000/svg">
<path fill-rule="evenodd" clip-rule="evenodd" d="M12 9.92499C10.2883 9.57753 9 8.06422 9 6.25C9 4.17893 10.6789 2.5 12.75 2.5C14.8211 2.5 16.5 4.17893 16.5 6.25C16.5 8.06422 15.2117 9.57753 13.5 9.92499V10.9961H15.25C15.5261 10.9961 15.75 11.22 15.75 11.4961V11.9961C15.75 12.2723 15.5261 12.4961 15.25 12.4961H13.5V15.4961C13.5 15.7723 13.2761 15.9961 13 15.9961H12.5C12.2239 15.9961 12 15.7723 12 15.4961V12.4961H10.25C9.97386 12.4961 9.75 12.2723 9.75 11.9961V11.4961C9.75 11.22 9.97386 10.9961 10.25 10.9961H12V9.92499ZM12.75 8.49612C13.9926 8.49612 15 7.48876 15 6.24612C15 5.00347 13.9926 3.99612 12.75 3.99612C11.5074 3.99612 10.5 5.00347 10.5 6.24612C10.5 7.48876 11.5074 8.49612 12.75 8.49612ZM6 8.5789C7.71168 8.92635 9 10.4397 9 12.2539C9 14.325 7.32107 16.0039 5.25 16.0039C3.17893 16.0039 1.5 14.325 1.5 12.2539C1.5 10.4397 2.78832 8.92635 4.5 8.5789V5.03636L3.05717 6.43711C2.85441 6.63396 2.53981 6.62592 2.34171 6.43156L2.03354 6.1292C1.83509 5.9345 1.83458 5.62221 2.03162 5.43092L4.53716 2.99845C4.55008 2.98233 4.56414 2.96677 4.57932 2.95188L4.88749 2.64952C4.95446 2.58382 5.03527 2.54004 5.12052 2.51823C5.29204 2.47076 5.48217 2.51651 5.61774 2.64952L5.92592 2.95188C5.94086 2.96655 5.95469 2.98188 5.96739 2.99778L8.47362 5.43092C8.67638 5.62777 8.6698 5.93484 8.4717 6.1292L8.16353 6.43156C7.96508 6.62626 7.64511 6.62841 7.44807 6.43711L6 5.03127V8.5789ZM5.25 14.5C6.49264 14.5 7.5 13.4926 7.5 12.25C7.5 11.0074 6.49264 10 5.25 10C4.00736 10 3 11.0074 3 12.25C3 13.4926 4.00736 14.5 5.25 14.5Z" fill="black" />
</svg>
