<svg width="18" height="18" viewBox="0 0 18 18" fill="none" xmlns="http://www.w3.org/2000/svg">
<path fill-rule="evenodd" clip-rule="evenodd" d="M15.9977 7.39691C15.9992 7.44172 16 7.48733 16 7.53375C16 8.13017 15.8748 8.73275 15.6243 9.3415C14.9175 11.0591 13.2137 12.8257 10.5129 14.6415C10.3898 14.7242 10.1528 14.8764 9.80209 15.0978C9.31346 15.4064 8.69105 15.4068 8.20202 15.0989L7.6812 14.7709C3.89373 12.2653 2 9.85293 2 7.53375C2 7.48733 2.00076 7.44172 2.00228 7.39691C2.00076 7.35307 2 7.30904 2 7.26483C2 5.18557 3.68754 3.5 5.76923 3.5C7.14033 3.5 8.34044 4.23123 9 5.32455C9.65956 4.23123 10.8597 3.5 12.2308 3.5C14.3125 3.5 16 5.18557 16 7.26483C16 7.30904 15.9992 7.35307 15.9977 7.39691Z" fill="black" />
</svg>
