<svg width="18" height="18" viewBox="0 0 18 18" fill="none" xmlns="http://www.w3.org/2000/svg">
<path fill-rule="evenodd" clip-rule="evenodd" d="M9 2C12.866 2 16 5.13401 16 9C16 12.866 12.866 16 9 16C5.13401 16 2 12.866 2 9C2 5.13401 5.13401 2 9 2ZM9 3.5C5.96243 3.5 3.5 5.96243 3.5 9C3.5 12.0376 5.96243 14.5 9 14.5C12.0376 14.5 14.5 12.0376 14.5 9C14.5 5.96243 12.0376 3.5 9 3.5ZM9.5 12V13.5H8V12H9.5ZM9.00346 4.5C9.90046 4.5 10.5565 4.761 11.1245 5.221C11.6825 5.672 12.0035 6.365 12.0035 7.25C12.0035 8.24071 11.4745 8.73158 10.8856 9.19847L10.0969 9.82864C9.63914 10.2018 9.50346 10.3368 9.50346 10.5L9.50546 11H8.00346V10C8.00346 9.518 8.49746 9.238 9.50346 8.5C10.1675 8.013 10.5035 7.638 10.5035 7.25C10.5035 6.895 10.4735 6.546 10.0035 6.221C9.76946 6.06 9.38546 5.996 9.00446 6C8.60846 6.004 8.21746 6.08 8.00346 6.221C7.60386 6.4838 7.51854 6.85514 7.50547 7.13236L7.50346 7.221V7.5H6.00346L6.00003 7.06709C6.00141 6.5303 6.0591 5.97014 6.56746 5.439C7.13046 4.85 7.94446 4.5 9.00346 4.5Z" fill="black" />
</svg>
