<svg width="18" height="18" viewBox="0 0 18 18" fill="none" xmlns="http://www.w3.org/2000/svg">
<path fill-rule="evenodd" clip-rule="evenodd" d="M2.25 9H3.75C4.02614 9 4.25 9.22386 4.25 9.5V13.5C4.25 13.7761 4.02614 14 3.75 14H2.25C1.97386 14 1.75 13.7761 1.75 13.5V9.5C1.75 9.22386 1.97386 9 2.25 9ZM6.25 4H7.75C8.02614 4 8.25 4.22386 8.25 4.5V13.5C8.25 13.7761 8.02614 14 7.75 14H6.25C5.97386 14 5.75 13.7761 5.75 13.5V4.5C5.75 4.22386 5.97386 4 6.25 4ZM10.25 7H11.75C12.0261 7 12.25 7.22386 12.25 7.5V13.5C12.25 13.7761 12.0261 14 11.75 14H10.25C9.97386 14 9.75 13.7761 9.75 13.5V7.5C9.75 7.22386 9.97386 7 10.25 7ZM14.25 10H15.75C16.0261 10 16.25 10.2239 16.25 10.5V13.5C16.25 13.7761 16.0261 14 15.75 14H14.25C13.9739 14 13.75 13.7761 13.75 13.5V10.5C13.75 10.2239 13.9739 10 14.25 10Z" fill="black" />
</svg>
