<svg width="18" height="18" viewBox="0 0 18 18" fill="none" xmlns="http://www.w3.org/2000/svg">
<path fill-rule="evenodd" clip-rule="evenodd" d="M2.5 2.5H15.5C15.7761 2.5 16 2.72386 16 3V15C16 15.2761 15.7761 15.5 15.5 15.5H2.5C2.22386 15.5 2 15.2761 2 15V3C2 2.72386 2.22386 2.5 2.5 2.5ZM8.75 7.25C9.30228 7.25 9.75 6.80228 9.75 6.25C9.75 5.69772 9.30228 5.25 8.75 5.25C8.19772 5.25 7.75 5.69772 7.75 6.25C7.75 6.80228 8.19772 7.25 8.75 7.25ZM3.5 10.5V14H14.5V10.5L12.5 9L10.0049 11L6.5 8L3.5 10.5Z" fill="black" />
</svg>
