<svg width="18" height="18" viewBox="0 0 18 18" fill="none" xmlns="http://www.w3.org/2000/svg">
<path fill-rule="evenodd" clip-rule="evenodd" d="M9.75 4H15C15.2761 4 15.5 4.22386 15.5 4.5V5C15.5 5.27614 15.2761 5.5 15 5.5H14.12V9.5H15.75C15.8881 9.5 16 9.61193 16 9.75V11C16 11.8284 15.3284 12.5 14.5 12.5H12.5C11.6716 12.5 11 11.8284 11 11V9.75C11 9.61193 11.1119 9.5 11.25 9.5H12.87V5.5H9.75V14H13C13.2761 14 13.5 14.2239 13.5 14.5V15.5C13.5 15.7761 13.2761 16 13 16H5C4.72386 16 4.5 15.7761 4.5 15.5V14.5C4.5 14.2239 4.72386 14 5 14H8.25V5.5H5.12V9.5H6.75C6.88807 9.5 7 9.61193 7 9.75V11C7 11.8284 6.32843 12.5 5.5 12.5H3.5C2.67157 12.5 2 11.8284 2 11V9.75C2 9.61193 2.11193 9.5 2.25 9.5H3.87V5.5H3C2.72386 5.5 2.5 5.27614 2.5 5V4.5C2.5 4.22386 2.72386 4 3 4H8.25V2.75C8.25 2.33579 8.58579 2 9 2C9.41421 2 9.75 2.33579 9.75 2.75V4Z" fill="black" />
</svg>
