<svg width="18" height="18" viewBox="0 0 18 18" fill="none" xmlns="http://www.w3.org/2000/svg">
<path fill-rule="evenodd" clip-rule="evenodd" d="M15.25 8.62361V4.25H2.75V9.18301L4.6864 10.301C4.90505 10.1134 5.18929 10 5.5 10C5.80135 10 6.07779 10.1066 6.29366 10.2842L8.02152 8.98219C8.00739 8.90696 8 8.82934 8 8.75C8 8.05964 8.55964 7.5 9.25 7.5C9.94036 7.5 10.5 8.05964 10.5 8.75C10.5 8.82982 10.4925 8.90788 10.4782 8.98354L11.6683 9.81684C11.8892 9.61977 12.1806 9.5 12.5 9.5C12.791 9.5 13.0587 9.59941 13.2711 9.76612L15.25 8.62361ZM15.25 9.77831L13.7458 10.6468C13.7486 10.6808 13.75 10.7152 13.75 10.75C13.75 11.4404 13.1904 12 12.5 12C11.8096 12 11.25 11.4404 11.25 10.75L11.25 10.7447L9.91401 9.80925C9.72162 9.93011 9.49397 10 9.25 10C9.00594 10 8.77822 9.93006 8.58579 9.80912L6.74874 11.1934C6.74958 11.2122 6.75 11.231 6.75 11.25C6.75 11.9404 6.19036 12.5 5.5 12.5C4.80964 12.5 4.25 11.9404 4.25 11.25C4.25 11.2347 4.25028 11.2194 4.25082 11.2042L2.75 10.3377V14.75H15.25V9.77831ZM2 3H16C16.2761 3 16.5 3.22386 16.5 3.5V15.5C16.5 15.7761 16.2761 16 16 16H2C1.72386 16 1.5 15.7761 1.5 15.5V3.5C1.5 3.22386 1.72386 3 2 3Z" fill="black" />
</svg>
