<svg width="18" height="18" viewBox="0 0 18 18" fill="none" xmlns="http://www.w3.org/2000/svg">
<path fill-rule="evenodd" clip-rule="evenodd" d="M5.5 5.5V4C5.5 3.44772 5.94772 3 6.5 3H7C7 1.89543 7.89543 1 9 1C10.1046 1 11 1.89543 11 3H11.5C12.0523 3 12.5 3.44772 12.5 4V5.5H13C13.5523 5.5 14 5.94772 14 6.5V16C14 16.5523 13.5523 17 13 17H5C4.44772 17 4 16.5523 4 16V6.5C4 5.94772 4.44772 5.5 5 5.5H5.5ZM7 5.5H11V4.5H9.5V3C9.5 2.72386 9.27614 2.5 9 2.5C8.72386 2.5 8.5 2.72386 8.5 3V4.5H7V5.5ZM12.5 7H5.5V15.5H12.5V7ZM7 9.5H9V11H7V9.5ZM7 12H9V13.5H7V12Z" fill="black" />
</svg>
