<svg width="18" height="18" viewBox="0 0 18 18" fill="none" xmlns="http://www.w3.org/2000/svg">
<path fill-rule="evenodd" clip-rule="evenodd" d="M8.25 14.5V13H5.5C4.94772 13 4.5 12.5523 4.5 12V3C4.5 2.44772 4.94772 2 5.5 2H12.5C13.0523 2 13.5 2.44772 13.5 3V12C13.5 12.5523 13.0523 13 12.5 13H9.75V14.5H12.75C12.8881 14.5 13 14.6119 13 14.75V15.75C13 15.8881 12.8881 16 12.75 16H5.25C5.11193 16 5 15.8881 5 15.75V14.75C5 14.6119 5.11193 14.5 5.25 14.5H8.25ZM9.5 9.5V10.75H12V9.5H9.5ZM9.5 7V8.25H12V7H9.5ZM9.5 4.5V5.75H12V4.5H9.5Z" fill="black" />
</svg>
