<svg width="18" height="18" viewBox="0 0 18 18" fill="none" xmlns="http://www.w3.org/2000/svg">
<path d="M9 2C10.3807 2 11.5 3.11929 11.5 4.5C11.5 5.6192 10.7646 6.56663 9.75057 6.88537L9.75 8H14.75C15.2628 8 15.6855 8.38604 15.7433 8.88338L15.75 9L15.7506 11.1146C16.7646 11.4334 17.5 12.3808 17.5 13.5C17.5 14.8807 16.3807 16 15 16C13.6193 16 12.5 14.8807 12.5 13.5C12.5 12.3804 13.2359 11.4328 14.2504 11.1143L14.25 9.5H9.75L9.75057 11.1146C10.7646 11.4334 11.5 12.3808 11.5 13.5C11.5 14.8807 10.3807 16 9 16C7.61929 16 6.5 14.8807 6.5 13.5C6.5 12.3804 7.23593 11.4328 8.25042 11.1143L8.25 9.5H3.75L3.75057 11.1146C4.76455 11.4334 5.5 12.3808 5.5 13.5C5.5 14.8807 4.38071 16 3 16C1.61929 16 0.5 14.8807 0.5 13.5C0.5 12.3804 1.23593 11.4328 2.25042 11.1143L2.25 9C2.25 8.48716 2.63604 8.06449 3.13338 8.00673L3.25 8H8.25L8.25042 6.88568C7.23593 6.56725 6.5 5.61957 6.5 4.5C6.5 3.11929 7.61929 2 9 2ZM9 12.5C8.44772 12.5 8 12.9477 8 13.5C8 14.0523 8.44772 14.5 9 14.5C9.55229 14.5 10 14.0523 10 13.5C10 12.9477 9.55229 12.5 9 12.5ZM3 12.5C2.44772 12.5 2 12.9477 2 13.5C2 14.0523 2.44772 14.5 3 14.5C3.55228 14.5 4 14.0523 4 13.5C4 12.9477 3.55228 12.5 3 12.5ZM15 12.5C14.4477 12.5 14 12.9477 14 13.5C14 14.0523 14.4477 14.5 15 14.5C15.5523 14.5 16 14.0523 16 13.5C16 12.9477 15.5523 12.5 15 12.5ZM9 3.5C8.44772 3.5 8 3.94772 8 4.5C8 5.05228 8.44772 5.5 9 5.5C9.55229 5.5 10 5.05228 10 4.5C10 3.94772 9.55229 3.5 9 3.5Z" fill="black" />
</svg>
