<svg width="18" height="18" viewBox="0 0 18 18" fill="none" xmlns="http://www.w3.org/2000/svg">
<path fill-rule="evenodd" clip-rule="evenodd" d="M10.5 4.50965C10.5 4.22818 10.714 4 11.0047 4H11.9953C12.274 4 12.5 4.22765 12.5 4.50965V13.4904C12.5 13.7718 12.286 14 11.9953 14H11.0047C10.726 14 10.5 13.7723 10.5 13.4904V4.50965ZM6.99532 4C7.27405 4 7.5 4.22765 7.5 4.50965V13.4904C7.5 13.7718 7.28596 14 6.99532 14H6.00468C5.72595 14 5.5 13.7723 5.5 13.4904V4.50965C5.5 4.22818 5.71404 4 6.00468 4H6.99532Z" fill="black" />
</svg>
