<svg width="18" height="18" viewBox="0 0 18 18" fill="none" xmlns="http://www.w3.org/2000/svg">
<path fill-rule="evenodd" clip-rule="evenodd" d="M12.5 15V13.9091C12.5 12.3141 11.7394 10.8968 10.561 10.0001C10.571 10 10.5809 10 10.5909 10H12.4091C14.6684 10 16.5 11.8316 16.5 14.0909V14.75C16.5 14.8881 16.3881 15 16.25 15H12.5ZM9.40032 7.78502C9.77972 7.1989 10 6.50017 10 5.75C10 4.99983 9.77972 4.3011 9.40032 3.71498C9.88876 3.27077 10.5378 3 11.25 3C12.7688 3 14 4.23122 14 5.75C14 7.26878 12.7688 8.5 11.25 8.5C10.5378 8.5 9.88876 8.22923 9.40032 7.78502ZM5.59091 10H7.40909C9.66844 10 11.5 11.8316 11.5 14.0909V14.75C11.5 14.8881 11.3881 15 11.25 15H1.75C1.61193 15 1.5 14.8881 1.5 14.75V14.0909C1.5 11.8316 3.33156 10 5.59091 10ZM6.25 8.5C4.73122 8.5 3.5 7.26878 3.5 5.75C3.5 4.23122 4.73122 3 6.25 3C7.76878 3 9 4.23122 9 5.75C9 7.26878 7.76878 8.5 6.25 8.5Z" fill="black" />
</svg>
