<svg width="18" height="18" viewBox="0 0 18 18" fill="none" xmlns="http://www.w3.org/2000/svg">
<path fill-rule="evenodd" clip-rule="evenodd" d="M9 5.49998V6.99241C9 7.27756 8.82737 7.35391 8.61442 7.17372L6.13558 5.07624C5.92473 4.89783 5.92263 4.60391 6.13558 4.42372L8.61442 2.32624C8.82527 2.14783 9 2.22723 9 2.50755V3.99998C12.3137 3.99998 15 6.68627 15 9.99998C15 13.3137 12.3137 16 9 16C5.68629 16 3 13.3137 3 9.99998H4.5C4.5 12.4853 6.51472 14.5 9 14.5C11.4853 14.5 13.5 12.4853 13.5 9.99998C13.5 7.5147 11.4853 5.49998 9 5.49998Z" fill="black" />
</svg>
