<svg width="18" height="18" viewBox="0 0 18 18" fill="none" xmlns="http://www.w3.org/2000/svg">
<path fill-rule="evenodd" clip-rule="evenodd" d="M16.0526 9.66792L16.8644 12.6974C16.9359 12.9642 16.7776 13.2383 16.5108 13.3098L4.91973 16.4156C4.653 16.4871 4.37883 16.3288 4.30736 16.0621L2.59405 9.66792H1.6299C1.35117 9.66792 1.12521 9.44659 1.12521 9.16009V8.67575C1.12521 8.39529 1.33925 8.16792 1.6299 8.16792H2.19212L1.46035 5.4369C1.38888 5.17017 1.54717 4.896 1.8139 4.82453L13.405 1.7187C13.6717 1.64723 13.9459 1.80552 14.0174 2.07225L15.6507 8.16792H16.6193C16.8987 8.16792 17.1252 8.38925 17.1252 8.67575V9.16009C17.1252 9.44056 16.8945 9.66792 16.6193 9.66792H16.0526ZM3.16806 6.0146L5.49743 14.7079L15.1567 12.1197L12.8273 3.42641L3.16806 6.0146ZM4.37521 8.16792H6.62521V9.66792H4.37521V8.16792ZM7.87521 8.16792H10.1252V9.66792H7.87521V8.16792ZM11.3752 8.16792H13.6252V9.66792H11.3752V8.16792Z" fill="black" />
</svg>
