<svg width="18" height="18" viewBox="0 0 18 18" fill="none" xmlns="http://www.w3.org/2000/svg">
<path fill-rule="evenodd" clip-rule="evenodd" d="M3 2H15C15.2761 2 15.5 2.22386 15.5 2.5V11.2681C15.5 11.4152 15.4352 11.5548 15.323 11.6498L9.32297 16.7267C9.13655 16.8845 8.86345 16.8845 8.67703 16.7267L2.67703 11.6498C2.56475 11.5548 2.5 11.4152 2.5 11.2681V2.5C2.5 2.22386 2.72386 2 3 2ZM4 3.5V10.75L9 15L14 10.75V3.5H4ZM8.01041 9.33883L11.8995 5.44975L12.9602 6.51041L8.01041 11.4602L5.0052 8.45495L6.06586 7.39429L8.01041 9.33883Z" fill="black" />
</svg>
