<svg width="18" height="18" viewBox="0 0 18 18" fill="none" xmlns="http://www.w3.org/2000/svg">
<path fill-rule="evenodd" clip-rule="evenodd" d="M6 5V4C6 2.34315 7.34315 1 9 1C10.6569 1 12 2.34315 12 4V5H14.5C14.7761 5 15 5.22386 15 5.5V16C15 16.2761 14.7761 16.5 14.5 16.5H3.5C3.22386 16.5 3 16.2761 3 16V5.5C3 5.22386 3.22386 5 3.5 5H6ZM7.5 5H10.5V4C10.5 3.17157 9.82843 2.5 9 2.5C8.17157 2.5 7.5 3.17157 7.5 4V5ZM6 6.5H4.5V15H13.5V6.5H12V8.5H10.5V6.5H9.39614C9.26652 6.50069 9.13429 6.5 9 6.5C8.79301 6.5 8.59092 6.50278 8.39573 6.5H7.5V8.5H6V6.5Z" fill="black" />
</svg>
