<svg width="18" height="18" viewBox="0 0 18 18" fill="none" xmlns="http://www.w3.org/2000/svg">
<path fill-rule="evenodd" clip-rule="evenodd" d="M13 15C13 14.4477 12.5523 14 12 14C11.4477 14 11 14.4477 11 15H1.5C1.22386 15 1 14.7761 1 14.5V4.5C1 4.22386 1.22386 4 1.5 4H16.5C16.7761 4 17 4.22386 17 4.5V14.5C17 14.7761 16.7761 15 16.5 15H13ZM9.99982 13.5C10.4559 12.8928 11.1821 12.5 12 12.5C12.8179 12.5 13.5441 12.8928 14.0002 13.5H15.5V5.5H14.0002C13.5441 6.10722 12.8179 6.5 12 6.5C11.1821 6.5 10.4559 6.10722 9.99982 5.5H2.5V13.5H9.99982ZM4.5 7.5H8.75V9H4.5V7.5ZM4.5 10H8.75V11.5H4.5V10ZM11.25 10H12.75V11.5H11.25V10ZM11.25 7.5H12.75V9H11.25V7.5ZM12 5C12.5523 5 13 4.55228 13 4H11C11 4.55228 11.4477 5 12 5Z" fill="black" />
</svg>
