<svg width="18" height="18" viewBox="0 0 18 18" fill="none" xmlns="http://www.w3.org/2000/svg">
<path fill-rule="evenodd" clip-rule="evenodd" d="M9.75 2.5V3.5H14C14.5523 3.5 15 3.94772 15 4.5V15C15 15.5523 14.5523 16 14 16H13C13 16.5523 12.5523 17 12 17C11.4477 17 11 16.5523 11 16H7C7 16.5523 6.55228 17 6 17C5.44772 17 5 16.5523 5 16H4C3.44772 16 3 15.5523 3 15V4.5C3 3.94772 3.44772 3.5 4 3.5H8.25V2.5H6.75C6.33579 2.5 6 2.16421 6 1.75C6 1.33579 6.33579 1 6.75 1H11.25C11.6642 1 12 1.33579 12 1.75C12 2.16421 11.6642 2.5 11.25 2.5H9.75ZM4.5 5V14.5H13.5V5H4.5ZM7 7H8.25V13H7V7ZM9.75 7H11V13H9.75V7Z" fill="black" />
</svg>
