<svg width="18" height="18" viewBox="0 0 18 18" fill="none" xmlns="http://www.w3.org/2000/svg">
<path fill-rule="evenodd" clip-rule="evenodd" d="M13.25 9.25V11.75H14V13.75H11.5V11.75H12.25V10H9.5V11.75H10.25V13.75H7.75V11.75H8.5V10H5.75V11.75H6.5V13.75H4V11.75H4.75V9.25C4.75 9.11193 4.86193 9 5 9H8.5V7.25H7.75V5.25H10.25V7.25H9.5V9H13C13.1381 9 13.25 9.11193 13.25 9.25ZM2 3H16C16.2761 3 16.5 3.22386 16.5 3.5V15.5C16.5 15.7761 16.2761 16 16 16H2C1.72386 16 1.5 15.7761 1.5 15.5V3.5C1.5 3.22386 1.72386 3 2 3ZM2.75 4.25V14.75H15.25V4.25H2.75Z" fill="black" />
</svg>
