<svg width="18" height="18" viewBox="0 0 18 18" fill="none" xmlns="http://www.w3.org/2000/svg">
<path fill-rule="evenodd" clip-rule="evenodd" d="M12.5286 10.043L10.9298 8.31093L9.62019 9.4568C9.2438 9.78614 8.67651 9.76725 8.32286 9.4136L4.44425 5.53499L5.50491 4.47433L9.01968 7.9891L10.3451 6.82939C10.7325 6.49037 11.3195 6.52167 11.6687 6.89998L13.5901 8.98154L14.2941 8.27756C14.6861 7.88552 15.0506 8.01878 15.113 8.57035L15.4526 11.5729C15.4845 11.8546 15.2853 12.0468 15.0093 12.0162L12.0007 11.6826C11.4488 11.6214 11.316 11.2556 11.7059 10.8657L12.5286 10.043ZM3.5 13.5H15.5C15.7761 13.5 16 13.7239 16 14V14.5C16 14.7761 15.7761 15 15.5 15H2.5C2.22386 15 2 14.7761 2 14.5V3.5C2 3.22386 2.22386 3 2.5 3H3C3.27614 3 3.5 3.22386 3.5 3.5V13.5Z" fill="black" />
</svg>
