<svg width="18" height="18" viewBox="0 0 18 18" fill="none" xmlns="http://www.w3.org/2000/svg">
<path fill-rule="evenodd" clip-rule="evenodd" d="M9 14C6.14375 14 3.5497 12.4328 1.21786 9.29846C1.08609 9.12135 1.08609 8.87877 1.21786 8.70165C3.54971 5.56724 6.14372 4 9 4C11.8563 4 14.4503 5.56718 16.7821 8.70154C16.9139 8.87865 16.9139 9.12123 16.7821 9.29835C14.4503 12.4328 11.8563 14 9 14ZM9 12.5C10.933 12.5 12.5 10.933 12.5 9C12.5 7.067 10.933 5.5 9 5.5C7.067 5.5 5.5 7.067 5.5 9C5.5 10.933 7.067 12.5 9 12.5ZM9 11C7.89543 11 7 10.1046 7 9C7 7.89543 7.89543 7 9 7C10.1046 7 11 7.89543 11 9C11 10.1046 10.1046 11 9 11Z" fill="black" />
</svg>
