<svg width="18" height="18" viewBox="0 0 18 18" fill="none" xmlns="http://www.w3.org/2000/svg">
<path fill-rule="evenodd" clip-rule="evenodd" d="M8.37654 2.60693C8.91396 2.36845 9.54899 2.53921 9.89411 3.0162L9.96348 3.12306L16.3455 14.1265C16.456 14.317 16.5142 14.5334 16.5142 14.7536C16.5142 15.4008 16.0223 15.9332 15.392 15.9972L15.2642 16.0036H2.50021C2.27994 16.0036 2.06359 15.9454 1.87306 15.8349C1.31569 15.5116 1.10141 14.8238 1.35693 14.248L1.41892 14.1265L7.8009 3.12306C7.8883 2.97238 8.00597 2.84205 8.14598 2.74002L8.25504 2.66892L8.37654 2.60693ZM8.88219 4.24863L2.93419 14.5036H14.8292L8.88219 4.24863ZM9.63219 12.2536V13.7536H8.13219V12.2536H9.63219ZM9.63219 6.75363V11.2536H8.13219V6.75363H9.63219Z" fill="black" />
</svg>
