<svg width="18" height="18" viewBox="0 0 18 18" fill="none" xmlns="http://www.w3.org/2000/svg">
<path fill-rule="evenodd" clip-rule="evenodd" d="M5.5 2.5H12.5C14.1569 2.5 15.5 3.84315 15.5 5.5V12.5C15.5 14.1569 14.1569 15.5 12.5 15.5H5.5C3.84315 15.5 2.5 14.1569 2.5 12.5V5.5C2.5 3.84315 3.84315 2.5 5.5 2.5ZM8.37 9.5H6.49707C6.36062 9.5 6.31798 9.58652 6.40573 9.6982L8.84427 12.8018C8.93028 12.9113 9.07416 12.9135 9.16129 12.8118L11.8387 9.68818C11.9278 9.58425 11.8799 9.5 11.7529 9.5H9.62V5.5H8.37V9.5Z" fill="black" />
</svg>
