<svg width="18" height="18" viewBox="0 0 18 18" fill="none" xmlns="http://www.w3.org/2000/svg">
<path fill-rule="evenodd" clip-rule="evenodd" d="M5 3.5C4.72386 3.5 4.5 3.72386 4.5 4V14C4.5 14.2761 4.72386 14.5 5 14.5H5.5C5.77614 14.5 6 14.2761 6 14V4C6 3.72386 5.77614 3.5 5.5 3.5H5ZM13.3 3.69645C13.1264 3.52288 12.857 3.50359 12.6621 3.63859L12.5929 3.69645L7.64315 8.64619C7.46958 8.81976 7.4503 9.08918 7.58529 9.28405L7.64315 9.3533L12.5929 14.303C12.7665 14.4766 13.0359 14.4959 13.2308 14.3609L13.3 14.303L13.6536 13.9495C13.8271 13.7759 13.8464 13.5065 13.7114 13.3116L13.6536 13.2424L9.4107 8.999L13.6536 4.75711C13.8271 4.58354 13.8464 4.31412 13.7114 4.11925L13.6536 4.05L13.3 3.69645Z" fill="black" />
</svg>
