<svg width="18" height="18" viewBox="0 0 18 18" fill="none" xmlns="http://www.w3.org/2000/svg">
<path fill-rule="evenodd" clip-rule="evenodd" d="M10 3.11151C12.004 3.56624 13.5 5.35841 13.5 7.5V12L14.4879 12.9879C14.605 13.105 14.605 13.295 14.4879 13.4121C14.4316 13.4684 14.3553 13.5 14.2757 13.5H3.72426C3.55858 13.5 3.42426 13.3657 3.42426 13.2C3.42426 13.1204 3.45587 13.0441 3.51213 12.9879L4.47071 12.0293C4.48946 12.0105 4.5 11.9851 4.5 11.9586V7.5C4.5 5.35841 5.99601 3.56624 8 3.11151V1.95C8 1.83954 8.08954 1.75 8.2 1.75H9.8C9.91046 1.75 10 1.83954 10 1.95V3.11151ZM9 4.5C7.34314 4.5 6 5.84315 6 7.5V12H12V7.5C12 5.84315 10.6569 4.5 9 4.5ZM6.25 14.25H11.25C11.25 15.0784 10.5784 15.75 9.75 15.75H7.75C6.92157 15.75 6.25 15.0784 6.25 14.25Z" fill="black" />
</svg>
