<svg width="18" height="18" viewBox="0 0 18 18" fill="none" xmlns="http://www.w3.org/2000/svg">
<path fill-rule="evenodd" clip-rule="evenodd" d="M6.75 12.0202C4.83425 11.1603 3.5 9.23595 3.5 7C3.5 3.96243 5.96243 1.5 9 1.5C12.0376 1.5 14.5 3.96243 14.5 7C14.5 9.23595 13.1658 11.1603 11.25 12.0202V13.8C11.25 13.9105 11.1605 14 11.05 14H6.95C6.83954 14 6.75 13.9105 6.75 13.8V12.0202ZM8.25 10.9298V12.75H9.75V10.9298C11.6006 10.5787 13 8.95279 13 7C13 4.79086 11.2091 3 9 3C6.79086 3 5 4.79086 5 7C5 8.95279 6.39935 10.5787 8.25 10.9298ZM6.95 15H11.05C11.1605 15 11.25 15.0895 11.25 15.2V16C11.25 16.2761 11.0261 16.5 10.75 16.5H7.25C6.97386 16.5 6.75 16.2761 6.75 16V15.2C6.75 15.0895 6.83954 15 6.95 15Z" fill="black" fill-opacity="0.58"/>
</svg>
