<svg width="18" height="18" viewBox="0 0 18 18" fill="none" xmlns="http://www.w3.org/2000/svg">
<path fill-rule="evenodd" clip-rule="evenodd" d="M7 12.1251C4.95132 11.325 3.5 9.33198 3.5 7C3.5 3.96243 5.96243 1.5 9 1.5C12.0376 1.5 14.5 3.96243 14.5 7C14.5 9.33198 13.0487 11.325 11 12.1251V13.8C11 13.9105 10.9105 14 10.8 14H7.2C7.08954 14 7 13.9105 7 13.8V12.1251ZM7.2 15H10.8C10.9105 15 11 15.0895 11 15.2V16C11 16.2761 10.7761 16.5 10.5 16.5H7.5C7.22386 16.5 7 16.2761 7 16V15.2C7 15.0895 7.08954 15 7.2 15Z" fill="black" fill-opacity="0.58"/>
</svg>
