<svg width="18" height="18" viewBox="0 0 18 18" fill="none" xmlns="http://www.w3.org/2000/svg">
<path fill-rule="evenodd" clip-rule="evenodd" d="M3 4H15C16.1046 4 17 4.89543 17 6V12C17 13.1046 16.1046 14 15 14H3C1.89543 14 1 13.1046 1 12V6C1 4.89543 1.89543 4 3 4ZM3.5 5.5C2.94772 5.5 2.5 5.94772 2.5 6.5V11.5C2.5 12.0523 2.94772 12.5 3.5 12.5H14.5C15.0523 12.5 15.5 12.0523 15.5 11.5V6.5C15.5 5.94772 15.0523 5.5 14.5 5.5H3.5ZM8.25 7.75H6.5C5.80964 7.75 5.25 8.30964 5.25 9C5.25 9.69036 5.80964 10.25 6.5 10.25H8.25V11.5H6.5C5.11929 11.5 4 10.3807 4 9C4 7.61929 5.11929 6.5 6.5 6.5H8.25V7.75ZM9.75 10.25H11.5C12.1904 10.25 12.75 9.69036 12.75 9C12.75 8.30964 12.1904 7.75 11.5 7.75H9.75V6.5H11.5C12.8807 6.5 14 7.61929 14 9C14 10.3807 12.8807 11.5 11.5 11.5H9.75V10.25ZM6.5 8.38H11.5V9.63H6.5V8.38Z" fill="black" />
</svg>
