<svg width="18" height="18" viewBox="0 0 18 18" fill="none" xmlns="http://www.w3.org/2000/svg">
<path fill-rule="evenodd" clip-rule="evenodd" d="M3 1H15C15.5523 1 16 1.44772 16 2V16C16 16.5523 15.5523 17 15 17H3C2.44772 17 2 16.5523 2 16V2C2 1.44772 2.44772 1 3 1ZM3.5 2.5V15.5H14.5V2.5H3.5ZM5 10.5H6.5V12H5V10.5ZM5 8H6.5V9.5H5V8ZM5 3.5H13V7H5V3.5ZM6.25 4.75V5.75H11.75V4.75H6.25ZM5 13H6.5V14.5H5V13ZM8.25 10.5H9.75V12H8.25V10.5ZM8.25 8H9.75V9.5H8.25V8ZM8.25 13H9.75V14.5H8.25V13ZM11.5 10.5H13V12H11.5V10.5ZM11.5 8H13V9.5H11.5V8ZM11.5 13H13V14.5H11.5V13Z" fill="black" />
</svg>
