<svg width="18" height="18" viewBox="0 0 18 18" fill="none" xmlns="http://www.w3.org/2000/svg">
<path fill-rule="evenodd" clip-rule="evenodd" d="M6 4L6.85355 3.14645C6.94732 3.05268 7.0745 3 7.20711 3H10.7929C10.9255 3 11.0527 3.05268 11.1464 3.14645L12 4H15C15.5523 4 16 4.44772 16 5V14C16 14.5523 15.5523 15 15 15H3C2.44772 15 2 14.5523 2 14V5C2 4.44772 2.44772 4 3 4H6ZM9 12.5C10.6569 12.5 12 11.1569 12 9.5C12 7.84315 10.6569 6.5 9 6.5C7.34315 6.5 6 7.84315 6 9.5C6 11.1569 7.34315 12.5 9 12.5ZM9 11C8.17157 11 7.5 10.3284 7.5 9.5C7.5 8.67157 8.17157 8 9 8C9.82843 8 10.5 8.67157 10.5 9.5C10.5 10.3284 9.82843 11 9 11Z" fill="black" />
</svg>
