<svg width="18" height="18" viewBox="0 0 18 18" fill="none" xmlns="http://www.w3.org/2000/svg">
<path d="M12.3587 13.4194C12.554 13.6147 12.8706 13.6147 13.0659 13.4194L13.4194 13.0659C13.6147 12.8706 13.6147 12.554 13.4194 12.3588L10.0607 9L13.4194 5.64124C13.6147 5.44598 13.6147 5.1294 13.4194 4.93414L13.0659 4.58058C12.8706 4.38532 12.554 4.38532 12.3587 4.58058L8.99999 7.93934L5.64123 4.58058C5.44597 4.38532 5.12939 4.38532 4.93413 4.58058L4.58057 4.93414C4.38531 5.1294 4.38531 5.44598 4.58057 5.64124L7.93933 9L4.58057 12.3588C4.38531 12.554 4.38531 12.8706 4.58057 13.0659L4.93413 13.4194C5.12939 13.6147 5.44597 13.6147 5.64123 13.4194L8.99999 10.0607L12.3587 13.4194Z" fill="black" fill-opacity="0.58"/>
</svg>
