<svg width="18" height="18" viewBox="0 0 18 18" fill="none" xmlns="http://www.w3.org/2000/svg">
<path fill-rule="evenodd" clip-rule="evenodd" d="M9 7.93934L10.9445 5.9948L12.0052 7.05546L10.0607 9L12.0052 10.9445L10.9445 12.0052L9 10.0607L7.05546 12.0052L5.9948 10.9445L7.93934 9L5.9948 7.05546L7.05546 5.9948L9 7.93934ZM9 14.5C12.0376 14.5 14.5 12.0376 14.5 9C14.5 5.96243 12.0376 3.5 9 3.5C5.96243 3.5 3.5 5.96243 3.5 9C3.5 12.0376 5.96243 14.5 9 14.5ZM9 16C5.13401 16 2 12.866 2 9C2 5.13401 5.13401 2 9 2C12.866 2 16 5.13401 16 9C16 12.866 12.866 16 9 16Z" fill="black" />
</svg>
