<svg width="18" height="18" viewBox="0 0 18 18" fill="none" xmlns="http://www.w3.org/2000/svg">
<path fill-rule="evenodd" clip-rule="evenodd" d="M2.5 14.5V3C2.5 2.72386 2.72386 2.5 3 2.5H10C10.2761 2.5 10.5 2.72386 10.5 3V4.5H15C15.2761 4.5 15.5 4.72386 15.5 5V14.5H16.25C16.3881 14.5 16.5 14.6119 16.5 14.75V15.75C16.5 15.8881 16.3881 16 16.25 16H1.75C1.61193 16 1.5 15.8881 1.5 15.75V14.75C1.5 14.6119 1.61193 14.5 1.75 14.5H2.5ZM10.5 14.5H14V6H10.5V14.5ZM9 14.5V4H4V14.5H9ZM6.5 5H7.75V6.25H6.5V5ZM6.5 7.5H7.75V8.75H6.5V7.5ZM11.5 7.5H12.75V8.75H11.5V7.5ZM6.5 10H7.75V11.25H6.5V10ZM11.5 10H12.75V11.25H11.5V10Z" fill="black" />
</svg>
