<svg width="18" height="18" viewBox="0 0 18 18" fill="none" xmlns="http://www.w3.org/2000/svg">
<path d="M10.0463 3.99092L6.54626 13.4909C6.40307 13.8796 6.60207 14.3108 6.99074 14.454C7.37942 14.5972 7.81058 14.3982 7.95378 14.0095L11.4538 4.50948C11.597 4.12081 11.398 3.68964 11.0093 3.54645C10.6206 3.40325 10.1895 3.60225 10.0463 3.99092Z" fill="black" fill-opacity="0.58"/>
<path d="M5.23563 6.56729C5.55488 6.29633 5.58986 5.8227 5.31375 5.5094C5.03765 5.1961 4.55501 5.16178 4.23576 5.43274L0.35244 8.72863C-0.0732281 9.08991 -0.119861 9.72141 0.248281 10.1391C0.297174 10.1946 0.352138 10.2447 0.412182 10.2883L4.28057 13.1025C4.61965 13.3492 5.09829 13.2794 5.34965 12.9467C5.60101 12.6139 5.52991 12.1442 5.19083 11.8975L1.83329 9.45496L5.23563 6.56729Z" fill="black" fill-opacity="0.58"/>
<path d="M12.6862 5.5094C12.4101 5.8227 12.4451 6.29633 12.7644 6.56729L16.1667 9.45496L12.8092 11.8975C12.4701 12.1442 12.399 12.6139 12.6503 12.9467C12.9017 13.2794 13.3804 13.3492 13.7194 13.1025L17.5878 10.2883C17.6479 10.2447 17.7028 10.1946 17.7517 10.1391C18.1199 9.72141 18.0732 9.08991 17.6476 8.72863L13.7642 5.43274C13.445 5.16178 12.9624 5.1961 12.6862 5.5094Z" fill="black" fill-opacity="0.58"/>
</svg>
