<svg width="18" height="18" viewBox="0 0 18 18" fill="none" xmlns="http://www.w3.org/2000/svg">
<path fill-rule="evenodd" clip-rule="evenodd" d="M8.25 9.76097L3.5 6.59431V9.19292L6 10.8596V13.32L8.25 14.58V9.76097ZM9.75 9.76097V14.58L12 13.32V10.8596L14.5 9.19292V6.59431L9.75 9.76097ZM11.4644 4.09927L9 5.85959L6.53555 4.09927L4.32145 5.33917L9 8.4582L13.6785 5.33917L11.4644 4.09927ZM8.5114 1.27361C8.81495 1.10362 9.18505 1.10362 9.4886 1.27361L15.4886 4.63361C15.8044 4.81046 16 5.14416 16 5.50612V12.2131C16 12.575 15.8044 12.9087 15.4886 13.0856L9.4886 16.4456C9.18505 16.6156 8.81495 16.6156 8.5114 16.4456L2.5114 13.0856C2.19559 12.9087 2 12.575 2 12.2131V5.50612C2 5.14417 2.19559 4.81046 2.5114 4.63361L8.5114 1.27361Z" fill="black" />
</svg>
