<svg width="18" height="18" viewBox="0 0 18 18" fill="none" xmlns="http://www.w3.org/2000/svg">
<path fill-rule="evenodd" clip-rule="evenodd" d="M9 2C12.866 2 16 5.13401 16 9C16 12.866 12.866 16 9 16C5.13401 16 2 12.866 2 9C2 5.13401 5.13401 2 9 2ZM9 3.5C5.96243 3.5 3.5 5.96243 3.5 9C3.5 12.0376 5.96243 14.5 9 14.5C12.0376 14.5 14.5 12.0376 14.5 9C14.5 5.96243 12.0376 3.5 9 3.5ZM12.7816 5.56236C12.8318 5.68431 12.8318 5.82116 12.7816 5.94311L10.9223 10.4586C10.8208 10.7052 10.625 10.901 10.3784 11.0025L5.86286 12.8619C5.60752 12.967 5.31529 12.8453 5.21015 12.5899C5.15993 12.468 5.15993 12.3311 5.21015 12.2092L7.06948 7.69365C7.17101 7.44707 7.36682 7.25126 7.6134 7.14972L12.1289 5.29039C12.3843 5.18525 12.6765 5.30702 12.7816 5.56236ZM8.34262 8.31519L6.57485 11.4972L9.75683 9.72941L8.34262 8.31519Z" fill="black" />
</svg>
