<svg width="18" height="18" viewBox="0 0 18 18" fill="none" xmlns="http://www.w3.org/2000/svg">
<path fill-rule="evenodd" clip-rule="evenodd" d="M14 5V15C14 15.5523 13.5523 16 13 16H5C4.44772 16 4 15.5523 4 15V5H2.5C2.22386 5 2 4.77614 2 4.5V4C2 3.72386 2.22386 3.5 2.5 3.5H6V2.5C6 2.22386 6.22386 2 6.5 2H11.5C11.7761 2 12 2.22386 12 2.5V3.5H15.5C15.7761 3.5 16 3.72386 16 4V4.5C16 4.77614 15.7761 5 15.5 5H14ZM5.5 5V14.5H12.5V5H5.5ZM7 6.5H8.5V13H7V6.5ZM9.5 6.5H11V13H9.5V6.5Z" fill="black" />
</svg>
