<svg width="18" height="18" viewBox="0 0 18 18" fill="none" xmlns="http://www.w3.org/2000/svg">
<path fill-rule="evenodd" clip-rule="evenodd" d="M7.6812 13.1995L5.87971 8.25H4.1245L7.6812 13.1995ZM7.47598 8.25L8.9952 12.424L10.5144 8.25H7.47598ZM10.3507 13.0856L13.8255 8.25H12.1107L10.3507 13.0856ZM8.0149 15.3027L7.95533 15.281L7.96813 15.2459L1.72361 7.65639C1.58948 7.49337 1.57219 7.26368 1.68039 7.08242L4.5688 2.24372C4.65903 2.09257 4.82209 2 4.99812 2H13.0019C13.1779 2 13.341 2.09257 13.4312 2.24372L16.3196 7.08242C16.4278 7.26368 16.4105 7.49337 16.2764 7.65639L9.3861 16.0307C9.21065 16.244 8.89556 16.2746 8.68232 16.0992C8.65735 16.0786 8.63443 16.0557 8.61389 16.0307L8.0149 15.3027ZM7.4041 3.5H5.83214L3.84036 6.75H5.52771L7.4041 3.5ZM7.25976 6.75H10.746L9.00287 3.73085L7.25976 6.75ZM10.6016 3.5L12.478 6.75H14.1096L12.1179 3.5H10.6016Z" fill="black" />
</svg>
