<svg width="18" height="18" viewBox="0 0 18 18" fill="none" xmlns="http://www.w3.org/2000/svg">
<path fill-rule="evenodd" clip-rule="evenodd" d="M3.5 14.5H14.5V6.50002H12.75C12.6119 6.50002 12.5 6.38809 12.5 6.25002V5.25002C12.5 5.11195 12.6119 5.00002 12.75 5.00002H15.5C15.7761 5.00002 16 5.22388 16 5.50002V15.5C16 15.7762 15.7761 16 15.5 16H2.5C2.22386 16 2 15.7762 2 15.5V5.50002C2 5.22388 2.22386 5.00002 2.5 5.00002H5.25C5.38807 5.00002 5.5 5.11195 5.5 5.25002V6.25002C5.5 6.38809 5.38807 6.50002 5.25 6.50002H3.5V14.5ZM11.9367 8.39214L9.30997 11.6974C9.13799 11.9138 8.85883 11.914 8.68672 11.6974L6.05997 8.39214C5.88799 8.17574 5.97485 8.00002 6.25426 8.00002H8.24834V2.3435C8.24834 2.19213 8.35924 2.08954 8.49604 2.08954H9.50065C9.63064 2.08954 9.74834 2.20324 9.74834 2.3435V8.00002H11.7424C12.0176 8.00002 12.1088 8.17558 11.9367 8.39214Z" fill="black" />
</svg>
