<svg width="18" height="18" viewBox="0 0 18 18" fill="none" xmlns="http://www.w3.org/2000/svg">
<path d="M11.5 13C12.3284 13 13 13.6716 13 14.5C13 15.3284 12.3284 16 11.5 16C10.6716 16 10 15.3284 10 14.5C10 13.6716 10.6716 13 11.5 13Z" fill="black" fill-opacity="0.58"/>
<path d="M11.5 2C12.3284 2 13 2.67157 13 3.5C13 4.32843 12.3284 5 11.5 5C10.6716 5 10 4.32843 10 3.5C10 2.67157 10.6716 2 11.5 2Z" fill="black" fill-opacity="0.58"/>
<path d="M13 9C13 8.17157 12.3284 7.5 11.5 7.5C10.6716 7.5 10 8.17157 10 9C10 9.82843 10.6716 10.5 11.5 10.5C12.3284 10.5 13 9.82843 13 9Z" fill="black" fill-opacity="0.58"/>
<path d="M6.5 5C5.67157 5 5 4.32843 5 3.5C5 2.67157 5.67157 2 6.5 2C7.32843 2 8 2.67157 8 3.5C8 4.32843 7.32843 5 6.5 5Z" fill="black" fill-opacity="0.58"/>
<path d="M5 14.5C5 15.3284 5.67157 16 6.5 16C7.32843 16 8 15.3284 8 14.5C8 13.6716 7.32843 13 6.5 13C5.67157 13 5 13.6716 5 14.5Z" fill="black" fill-opacity="0.58"/>
<path d="M6.5 10.5C5.67157 10.5 5 9.82843 5 9C5 8.17157 5.67157 7.5 6.5 7.5C7.32843 7.5 8 8.17157 8 9C8 9.82843 7.32843 10.5 6.5 10.5Z" fill="black" fill-opacity="0.58"/>
</svg>
