<svg width="18" height="18" viewBox="0 0 18 18" fill="none" xmlns="http://www.w3.org/2000/svg">
<path fill-rule="evenodd" clip-rule="evenodd" d="M12.15 6L13.5 4.5H4.5L5.85 6H12.15ZM10.8 7.5H7.2L9 9.5L10.8 7.5ZM9.75 11V14.5H13.25C13.3881 14.5 13.5 14.6119 13.5 14.75V15.75C13.5 15.8881 13.3881 16 13.25 16H4.75C4.61193 16 4.5 15.8881 4.5 15.75V14.75C4.5 14.6119 4.61193 14.5 4.75 14.5H8.25V11L2.6255 4.64187C2.54464 4.55046 2.5 4.43263 2.5 4.31058V3.5C2.5 3.22386 2.72386 3 3 3H15C15.2761 3 15.5 3.22386 15.5 3.5V4.31058C15.5 4.43263 15.4554 4.55046 15.3745 4.64187L9.75 11Z" fill="black" />
</svg>
