<svg width="18" height="18" viewBox="0 0 18 18" fill="none" xmlns="http://www.w3.org/2000/svg">
<path fill-rule="evenodd" clip-rule="evenodd" d="M16.5 9C16.5 13.1421 13.1421 16.5 9 16.5C4.85786 16.5 1.5 13.1421 1.5 9C1.5 4.85786 4.85786 1.5 9 1.5C13.1421 1.5 16.5 4.85786 16.5 9ZM15 9C15 12.3137 12.3137 15 9 15C5.68629 15 3 12.3137 3 9C3 5.68629 5.68629 3 9 3C12.3137 3 15 5.68629 15 9Z" fill="black" fill-opacity="0.58"/>
<path d="M9.13 8L10.38 5.5H11.63L10.38 8H11.63V9.25H9.63V10H11.63V11.25H9.63V12.85H8.38V11.25H6.38V10H8.38V9.25H6.38V8H7.63L6.38 5.5H7.63L8.88 8H9.13Z" fill="black" fill-opacity="0.58"/>
</svg>
