<svg width="18" height="18" viewBox="0 0 18 18" fill="none" xmlns="http://www.w3.org/2000/svg">
<path fill-rule="evenodd" clip-rule="evenodd" d="M3.50035 4H14.4997C14.771 4 15 4.22595 15 4.50468V5.49532C15 5.78596 14.776 6 14.4997 6H3.50035C3.229 6 3 5.77405 3 5.49532V4.50468C3 4.21404 3.22401 4 3.50035 4ZM3.50035 8H14.4997C14.771 8 15 8.22596 15 8.50468V9.49532C15 9.78596 14.776 10 14.4997 10H3.50035C3.229 10 3 9.77404 3 9.49532V8.50468C3 8.21404 3.22401 8 3.50035 8ZM3.50035 12H14.4997C14.771 12 15 12.226 15 12.5047V13.4953C15 13.786 14.776 14 14.4997 14H3.50035C3.229 14 3 13.774 3 13.4953V12.5047C3 12.214 3.22401 12 3.50035 12Z" fill="black" />
</svg>
