<svg width="18" height="18" viewBox="0 0 18 18" fill="none" xmlns="http://www.w3.org/2000/svg">
<path fill-rule="evenodd" clip-rule="evenodd" d="M8.25 5.5V3.25C8.25 3.11193 8.36193 3 8.5 3H9.5C9.63807 3 9.75 3.11193 9.75 3.25V5.5H16C16.5523 5.5 17 5.94772 17 6.5V14C17 14.5523 16.5523 15 16 15H2C1.44772 15 1 14.5523 1 14V6.5C1 5.94772 1.44772 5.5 2 5.5H8.25ZM2.5 7V13.5H15.5V7H2.5ZM13 10C12.4477 10 12 9.55228 12 9C12 8.44772 12.4477 8 13 8C13.5523 8 14 8.44772 14 9C14 9.55228 13.5523 10 13 10ZM11.25 12.5C10.6977 12.5 10.25 12.0523 10.25 11.5C10.25 10.9477 10.6977 10.5 11.25 10.5C11.8023 10.5 12.25 10.9477 12.25 11.5C12.25 12.0523 11.8023 12.5 11.25 12.5ZM5.25 9.5V8.25H6.75V9.5H8V11H6.75V12.25H5.25V11H4V9.5H5.25Z" fill="black" />
</svg>
