<svg width="18" height="18" viewBox="0 0 18 18" fill="none" xmlns="http://www.w3.org/2000/svg">
<path fill-rule="evenodd" clip-rule="evenodd" d="M13.5 9.5H16.5C16.7761 9.5 17 9.72386 17 10V14C17 14.2761 16.7761 14.5 16.5 14.5H2C1.72386 14.5 1.5 14.2761 1.5 14V9C1.5 8.72386 1.72386 8.5 2 8.5H5V4C5 3.72386 5.22386 3.5 5.5 3.5H9.5C9.77614 3.5 10 3.72386 10 4V6.5H13C13.2761 6.5 13.5 6.72386 13.5 7V9.5ZM3 10V13H5V10H3ZM6.5 5V13H8.5V5H6.5ZM10 8V13H12V8H10ZM13.5 10.75V13H15.5V10.75H13.5Z" fill="black" />
</svg>
