<svg width="18" height="18" viewBox="0 0 18 18" fill="none" xmlns="http://www.w3.org/2000/svg">
<path fill-rule="evenodd" clip-rule="evenodd" d="M14.5 11.6449L12.5474 9.69231L9.90776 12.332L9.90694 12.3404L6.24288 8.67635L3.5 11.4192V14H14.5V11.6449ZM14.5 9.87711V4H3.5V9.65147L6.24188 6.90959L6.24288 6.91059L6.24388 6.90959L9.90314 10.5688L11.6636 8.80843L11.66 8.80488L12.5439 7.921L14.5 9.87711ZM2.5 2.5H15.5C15.7761 2.5 16 2.72386 16 3V15C16 15.2761 15.7761 15.5 15.5 15.5H2.5C2.22386 15.5 2 15.2761 2 15V3C2 2.72386 2.22386 2.5 2.5 2.5ZM8.75 7.25C8.19772 7.25 7.75 6.80228 7.75 6.25C7.75 5.69772 8.19772 5.25 8.75 5.25C9.30228 5.25 9.75 5.69772 9.75 6.25C9.75 6.80228 9.30228 7.25 8.75 7.25Z" fill="black" />
</svg>
