<svg width="18" height="18" viewBox="0 0 18 18" fill="none" xmlns="http://www.w3.org/2000/svg">
<path fill-rule="evenodd" clip-rule="evenodd" d="M11.7462 8.89384L13.343 7.12038C13.1265 6.80075 13 6.41515 13 6C13 4.89543 13.8954 4 15 4C16.1046 4 17 4.89543 17 6C17 7.10457 16.1046 8 15 8C14.7669 8 14.543 7.96011 14.335 7.88678L12.7025 9.69989C12.8911 10.0051 13 10.3648 13 10.75C13 11.8546 12.1046 12.75 11 12.75C9.89543 12.75 9 11.8546 9 10.75C9 10.4592 9.06208 10.1828 9.17372 9.9335L7.9826 8.74239C7.69239 8.9064 7.35713 9 7 9C6.83373 9 6.67219 8.97971 6.51774 8.94147L4.63626 11.3496C4.86543 11.675 5 12.0718 5 12.5C5 13.6046 4.10457 14.5 3 14.5C1.89543 14.5 1 13.6046 1 12.5C1 11.3954 1.89543 10.5 3 10.5C3.2215 10.5 3.43459 10.536 3.63374 10.6025L5.4555 8.27073C5.17091 7.92523 5 7.48257 5 7C5 5.89543 5.89543 5 7 5C8.10457 5 9 5.89543 9 7C9 7.29133 8.93771 7.56811 8.82573 7.81775L10.0162 9.00827C10.3067 8.84385 10.6424 8.75 11 8.75C11.2638 8.75 11.5156 8.80106 11.7462 8.89384ZM3 11.75C2.58579 11.75 2.25 12.0858 2.25 12.5C2.25 12.9142 2.58579 13.25 3 13.25C3.41421 13.25 3.75 12.9142 3.75 12.5C3.75 12.0858 3.41421 11.75 3 11.75ZM7 6.25C6.58579 6.25 6.25 6.58579 6.25 7C6.25 7.41421 6.58579 7.75 7 7.75C7.41421 7.75 7.75 7.41421 7.75 7C7.75 6.58579 7.41421 6.25 7 6.25ZM11 10C10.5858 10 10.25 10.3358 10.25 10.75C10.25 11.1642 10.5858 11.5 11 11.5C11.4142 11.5 11.75 11.1642 11.75 10.75C11.75 10.3358 11.4142 10 11 10ZM15 5.25C14.5858 5.25 14.25 5.58579 14.25 6C14.25 6.41421 14.5858 6.75 15 6.75C15.4142 6.75 15.75 6.41421 15.75 6C15.75 5.58579 15.4142 5.25 15 5.25Z" fill="black" />
</svg>
