<svg width="18" height="18" viewBox="0 0 18 18" fill="none" xmlns="http://www.w3.org/2000/svg">
<path fill-rule="evenodd" clip-rule="evenodd" d="M9.39066 16.5152C9.36746 16.5442 9.34111 16.5706 9.31207 16.5938C9.09631 16.7661 8.78167 16.7309 8.60931 16.5152C5.20309 12.2512 3.5 9.12116 3.5 7.125C3.5 4.0184 5.96243 1.5 9 1.5C12.0376 1.5 14.5 4.0184 14.5 7.125C14.5 9.12116 12.7969 12.2512 9.39066 16.5152ZM9 8.25C9.9665 8.25 10.75 7.4665 10.75 6.5C10.75 5.5335 9.9665 4.75 9 4.75C8.0335 4.75 7.25 5.5335 7.25 6.5C7.25 7.4665 8.0335 8.25 9 8.25Z" fill="black" />
</svg>
