<svg width="18" height="18" viewBox="0 0 18 18" fill="none" xmlns="http://www.w3.org/2000/svg">
<path fill-rule="evenodd" clip-rule="evenodd" d="M9.75 7.57183C11.7395 7.92606 13.25 9.66456 13.25 11.7559C13.25 14.1031 11.3472 16.0059 9 16.0059C6.65279 16.0059 4.75 14.1031 4.75 11.7559C4.75 9.66456 6.26049 7.92606 8.25 7.57183V4.53636L6.80717 5.93711C6.60441 6.13396 6.28981 6.12592 6.09171 5.93156L5.78354 5.6292C5.58509 5.4345 5.58458 5.12221 5.78162 4.93092L8.28716 2.49845C8.30008 2.48233 8.31414 2.46677 8.32932 2.45188L8.63749 2.14952C8.70446 2.08382 8.78527 2.04004 8.87052 2.01823C9.04204 1.97076 9.23217 2.01651 9.36774 2.14952L9.67592 2.45188C9.69086 2.46655 9.70469 2.48188 9.71739 2.49778L12.2236 4.93092C12.4264 5.12777 12.4198 5.43484 12.2217 5.6292L11.9135 5.93156C11.7151 6.12626 11.3951 6.12841 11.1981 5.93711L9.75 4.53127V7.57183ZM9 14.5059C10.5188 14.5059 11.75 13.2746 11.75 11.7559C11.75 10.2371 10.5188 9.00586 9 9.00586C7.48122 9.00586 6.25 10.2371 6.25 11.7559C6.25 13.2746 7.48122 14.5059 9 14.5059Z" fill="black" />
</svg>
