<svg width="18" height="18" viewBox="0 0 18 18" fill="none" xmlns="http://www.w3.org/2000/svg">
<path fill-rule="evenodd" clip-rule="evenodd" d="M14.5 13C14.7761 13 15 13.2239 15 13.5V14.5C15 14.7761 14.7761 15 14.5 15H3.5C3.22386 15 3 14.7761 3 14.5V13.5C3 13.2239 3.22386 13 3.5 13H14.5ZM11.1 6.7C11.2473 6.50363 11.5113 6.44644 11.7233 6.55252L11.8 6.6L14.4667 8.6C14.5046 8.62843 14.5382 8.6621 14.5667 8.7C14.7139 8.89637 14.6949 9.16581 14.5337 9.33963L14.4667 9.4L11.8 11.4C11.7135 11.4649 11.6082 11.5 11.5 11.5C11.2545 11.5 11.0504 11.3231 11.0081 11.0899L11 11V7C11 6.89181 11.0351 6.78655 11.1 6.7ZM8.5 8C8.77614 8 9 8.22386 9 8.5V9.5C9 9.77614 8.77614 10 8.5 10H3.5C3.22386 10 3 9.77614 3 9.5V8.5C3 8.22386 3.22386 8 3.5 8H8.5ZM14.5 3C14.7761 3 15 3.22386 15 3.5V4.5C15 4.77614 14.7761 5 14.5 5H3.5C3.22386 5 3 4.77614 3 4.5V3.5C3 3.22386 3.22386 3 3.5 3H14.5Z" fill="black" />
</svg>
