<svg width="18" height="18" viewBox="0 0 18 18" fill="none" xmlns="http://www.w3.org/2000/svg">
<path fill-rule="evenodd" clip-rule="evenodd" d="M14.5 13C14.7761 13 15 13.2239 15 13.5V14.5C15 14.7761 14.7761 15 14.5 15H3.5C3.22386 15 3 14.7761 3 14.5V13.5C3 13.2239 3.22386 13 3.5 13H14.5ZM6.9 6.7C6.96491 6.78655 7 6.89181 7 7V11C7 11.2761 6.77614 11.5 6.5 11.5C6.39181 11.5 6.28655 11.4649 6.2 11.4L3.53333 9.4C3.31242 9.23431 3.26765 8.92091 3.43333 8.7C3.46176 8.6621 3.49543 8.62843 3.53333 8.6L6.2 6.6C6.42091 6.43431 6.73431 6.47909 6.9 6.7ZM14.5 8C14.7761 8 15 8.22386 15 8.5V9.5C15 9.77614 14.7761 10 14.5 10H9.5C9.22386 10 9 9.77614 9 9.5V8.5C9 8.22386 9.22386 8 9.5 8H14.5ZM14.5 3C14.7761 3 15 3.22386 15 3.5V4.5C15 4.77614 14.7761 5 14.5 5H3.5C3.22386 5 3 4.77614 3 4.5V3.5C3 3.22386 3.22386 3 3.5 3H14.5Z" fill="black" />
</svg>
