<svg width="18" height="18" viewBox="0 0 18 18" fill="none" xmlns="http://www.w3.org/2000/svg">
<path fill-rule="evenodd" clip-rule="evenodd" d="M5.5 3H14.5C14.7761 3 15 3.22386 15 3.5V14C15 14.9665 13.9926 15.75 12.75 15.75C11.5074 15.75 10.5 14.9665 10.5 14C10.5 13.0335 11.5074 12.25 12.75 12.25C13.013 12.25 13.2654 12.2851 13.5 12.3496V8.5H6.5V14C6.5 14.9665 5.49264 15.75 4.25 15.75C3.00736 15.75 2 14.9665 2 14C2 13.0335 3.00736 12.25 4.25 12.25C4.51298 12.25 4.76542 12.2851 5 12.3496V3.5C5 3.22386 5.22386 3 5.5 3ZM13.5 4.5H6.5V7H13.5V4.5Z" fill="black" />
</svg>
