<svg width="18" height="18" viewBox="0 0 18 18" fill="none" xmlns="http://www.w3.org/2000/svg">
<path fill-rule="evenodd" clip-rule="evenodd" d="M9.5 16.5C5.63401 16.5 2.5 13.366 2.5 9.5H9.5V2.5C13.366 2.5 16.5 5.63401 16.5 9.5C16.5 13.366 13.366 16.5 9.5 16.5ZM9.46074 15C12.52 15 15 12.5158 15 9.45128C15 6.90322 13.3275 4.7512 11 4.10233V11H4.1273C4.83927 13.2675 6.98048 15 9.46074 15ZM8.5 1.5V8C8.5 8.27614 8.27614 8.5 8 8.5H1.5C1.5 4.63401 4.63401 1.5 8.5 1.5ZM7 3.5C5.44444 3.5 3.5 5.44444 3.5 7C3.5 7 4.66667 6.99618 7 6.98853C7 4.66284 7 3.5 7 3.5Z" fill="black" />
</svg>
