<svg width="18" height="18" viewBox="0 0 18 18" fill="none" xmlns="http://www.w3.org/2000/svg">
<path fill-rule="evenodd" clip-rule="evenodd" d="M6 12H8.25V15.75H7V13.25H4.75V9.75H8.25V11H6V12ZM2.75 2.25H7.75C8.02614 2.25 8.25 2.47386 8.25 2.75V7.75C8.25 8.02614 8.02614 8.25 7.75 8.25H2.75C2.47386 8.25 2.25 8.02614 2.25 7.75V2.75C2.25 2.47386 2.47386 2.25 2.75 2.25ZM3.5 3.5V7H7V3.5H3.5ZM4.5 4.5H6V6H4.5V4.5ZM10.25 2.25H15.25C15.5261 2.25 15.75 2.47386 15.75 2.75V7.75C15.75 8.02614 15.5261 8.25 15.25 8.25H10.25C9.97386 8.25 9.75 8.02614 9.75 7.75V2.75C9.75 2.47386 9.97386 2.25 10.25 2.25ZM11 3.5V7H14.5V3.5H11ZM12 4.5H13.5V6H12V4.5ZM10.25 9.75H15.25C15.5261 9.75 15.75 9.97386 15.75 10.25V15.25C15.75 15.5261 15.5261 15.75 15.25 15.75H10.25C9.97386 15.75 9.75 15.5261 9.75 15.25V10.25C9.75 9.97386 9.97386 9.75 10.25 9.75ZM11 11V14.5H14.5V11H11ZM12 12H13.5V13.5H12V12ZM2.25 9.75H3.5V11H2.25V9.75ZM3.5 14.5H5.5V15.75H2.75C2.47386 15.75 2.25 15.5261 2.25 15.25V12H3.5V14.5Z" fill="black" />
</svg>
