<svg width="18" height="18" viewBox="0 0 18 18" fill="none" xmlns="http://www.w3.org/2000/svg">
<path fill-rule="evenodd" clip-rule="evenodd" d="M14 2C14.5523 2 15 2.46371 15 3.03571V14.8217C15 14.9017 14.9689 14.9786 14.9133 15.0361L13.7212 16.2701C13.6028 16.3927 13.4074 16.3961 13.2848 16.2776C13.2822 16.2751 13.2797 16.2726 13.2772 16.27L12.222 15.1765C12.1037 15.0539 11.9083 15.0504 11.7856 15.1687C11.783 15.1713 11.7804 15.1738 11.7779 15.1765L10.722 16.27C10.6036 16.3927 10.4082 16.3961 10.2856 16.2777C10.283 16.2752 10.2805 16.2726 10.278 16.27L9.22204 15.1764C9.10364 15.0538 8.90825 15.0503 8.78562 15.1687C8.78302 15.1712 8.78047 15.1738 8.77796 15.1764L7.72204 16.27C7.60364 16.3927 7.40825 16.3961 7.28562 16.2777C7.28302 16.2752 7.28047 16.2726 7.27796 16.27L6.22204 15.1764C6.10364 15.0538 5.90825 15.0503 5.78562 15.1687C5.78302 15.1712 5.78047 15.1738 5.77796 15.1764L4.72204 16.27C4.60364 16.3927 4.40825 16.3961 4.28562 16.2777C4.28302 16.2752 4.28047 16.2726 4.27796 16.27L3.0866 15.0361C3.03105 14.9786 3 14.9017 3 14.8217V3.03571C3 2.46371 3.44772 2 4 2H14ZM12.5 8H5.5V9.25H12.5V8ZM12.5 11H5.5V12.25H12.5V11ZM10.5 5H5.5V6.25H10.5V5Z" fill="black" />
</svg>
