<svg width="18" height="18" viewBox="0 0 18 18" fill="none" xmlns="http://www.w3.org/2000/svg">
<path fill-rule="evenodd" clip-rule="evenodd" d="M9 16C5.13401 16 2 12.866 2 9C2 5.13401 5.13401 2 9 2C12.866 2 16 5.13401 16 9C16 12.866 12.866 16 9 16ZM6.33705 10H7.56624C7.62472 10 7.68136 9.9795 7.72629 9.94206C7.83236 9.85366 7.84669 9.69602 7.7583 9.58995L5.79206 7.23047C5.78238 7.21885 5.77166 7.20814 5.76005 7.19846C5.65398 7.11007 5.49634 7.1244 5.40794 7.23047L3.44171 9.58995C3.40426 9.63488 3.38376 9.69152 3.38376 9.75C3.38376 9.88807 3.49569 10 3.63376 10H4.96484C5.4125 11.8124 7.04931 13.1562 9 13.1562C9.79023 13.1562 10.5494 12.9347 11.2052 12.5235C11.2655 12.4857 11.3249 12.4463 11.3832 12.4055L10.6299 11.3307C10.5899 11.3587 10.5493 11.3856 10.508 11.4115C10.0597 11.6926 9.5418 11.8438 9 11.8438C7.78136 11.8438 6.74176 11.0772 6.33705 10ZM11.6629 8H10.4338C10.2957 8 10.1838 8.11193 10.1838 8.25C10.1838 8.30848 10.2043 8.36512 10.2417 8.41005L12.2079 10.7695C12.2963 10.8756 12.454 10.8899 12.56 10.8015C12.5717 10.7919 12.5824 10.7811 12.5921 10.7695L14.5583 8.41005C14.6467 8.30398 14.6324 8.14634 14.5263 8.05794C14.4814 8.0205 14.4247 8 14.3662 8H13.0352C12.5875 6.18759 10.9507 4.84375 9 4.84375C8.03042 4.84375 7.11028 5.17762 6.37421 5.77812L7.20389 6.79511C7.70778 6.38403 8.33555 6.15625 9 6.15625C10.2186 6.15625 11.2582 6.92279 11.6629 8Z" fill="black" />
</svg>
