<svg width="18" height="18" viewBox="0 0 18 18" fill="none" xmlns="http://www.w3.org/2000/svg">
<path fill-rule="evenodd" clip-rule="evenodd" d="M14 14V11.7502C14 11.612 14.1177 11.5 14.2477 11.5H15.2523C15.3891 11.5 15.5 11.6154 15.5 11.7502V14.75C15.5 15.1642 15.1719 15.5 14.7406 15.5H10.7412C10.608 15.5 10.5 15.3823 10.5 15.2523V14.2477C10.5 14.1109 10.6044 14 10.7412 14H14ZM4 14H7.25884C7.39203 14 7.5 14.1177 7.5 14.2477V15.2523C7.5 15.3891 7.39557 15.5 7.25884 15.5H3.25939C2.83999 15.5 2.5 15.1671 2.5 14.75V11.7502C2.5 11.612 2.6177 11.5 2.74769 11.5H3.75231C3.8891 11.5 4 11.6154 4 11.7502V14ZM10.7412 2.5H14.75C15.1642 2.5 15.5 2.84104 15.5 3.25237V6.24978C15.5 6.38797 15.3823 6.5 15.2523 6.5H14.2477C14.1109 6.5 14 6.3846 14 6.24978V4H10.7412C10.608 4 10.5 3.8823 10.5 3.75231V2.74769C10.5 2.6109 10.6044 2.5 10.7412 2.5ZM4 4V6.24978C4 6.38797 3.8823 6.5 3.75231 6.5H2.74769C2.6109 6.5 2.5 6.3846 2.5 6.24978V3.25C2.5 2.83579 2.82806 2.5 3.25939 2.5H7.25884C7.39203 2.5 7.5 2.6177 7.5 2.74769V3.75231C7.5 3.8891 7.39557 4 7.25884 4H4ZM2 8.50468C2 8.22596 2.21991 8 2.49827 8H15.5017C15.7769 8 16 8.21404 16 8.50468V9.49532C16 9.77404 15.7801 10 15.5017 10H2.49827C2.22308 10 2 9.78596 2 9.49532V8.50468Z" fill="black" />
</svg>
