<svg width="18" height="18" viewBox="0 0 18 18" fill="none" xmlns="http://www.w3.org/2000/svg">
<path fill-rule="evenodd" clip-rule="evenodd" d="M2.5 4.99998H4.75C4.88807 4.99998 5 5.11191 5 5.24998V6.24998C5 6.38806 4.88807 6.49998 4.75 6.49998H3.5V14.5H14.5V9.24998C14.5 9.11191 14.6119 8.99998 14.75 8.99998H15.75C15.8881 8.99998 16 9.11191 16 9.24998V15.5C16 15.7761 15.7761 16 15.5 16H2.5C2.22386 16 2 15.7761 2 15.5V5.49998C2 5.22384 2.22386 4.99998 2.5 4.99998ZM12.3922 2.32298L15.8578 5.17699C16.0781 5.35845 16.0744 5.6446 15.8578 5.82298L12.3922 8.67699C12.1719 8.85845 12 8.77416 12 8.49559V6.24998H9.26193C8.98826 6.24998 8.75488 6.46963 8.75488 6.74057V11.7567C8.75488 11.8838 8.64362 12.004 8.50638 12.004H7.4985C7.36809 12.004 7.25 11.8959 7.25 11.7626V6.25301C7.25 5.41942 7.92288 4.74998 8.75293 4.74998H12V2.50438C12 2.21577 12.1756 2.1446 12.3922 2.32298Z" fill="black" />
</svg>
