<svg width="18" height="18" viewBox="0 0 18 18" fill="none" xmlns="http://www.w3.org/2000/svg">
<path fill-rule="evenodd" clip-rule="evenodd" d="M14 10.5C16.0711 10.5 17.75 12.1789 17.75 14.25C17.75 16.3211 16.0711 18 14 18C11.9289 18 10.25 16.3211 10.25 14.25C10.25 12.1789 11.9289 10.5 14 10.5ZM16 13.75H12V14.75H16V13.75ZM9 1C10.6569 1 12 2.34315 12 4V5H14.5C14.7761 5 15 5.22386 15 5.5L15.0012 9.35026C14.6777 9.28451 14.3429 9.25 14 9.25C13.8314 9.25 13.6647 9.25835 13.5003 9.27466L13.5 6.5H12V8.5H10.5V6.5H9C8.79301 6.5 8.59092 6.50278 8.39573 6.5H7.5V8.5H6V6.5H4.5V15L9.05586 14.9999C9.13591 15.5322 9.29987 16.0369 9.53383 16.5004L3.5 16.5C3.22386 16.5 3 16.2761 3 16V5.5C3 5.22386 3.22386 5 3.5 5H6V4C6 2.34315 7.34315 1 9 1ZM9 2.5C8.17157 2.5 7.5 3.17157 7.5 4V5H10.5V4C10.5 3.17157 9.82843 2.5 9 2.5Z" fill="black" />
</svg>
