<svg width="18" height="18" viewBox="0 0 18 18" fill="none" xmlns="http://www.w3.org/2000/svg">
<path fill-rule="evenodd" clip-rule="evenodd" d="M13.8914 6.48259C13.4837 6.98531 13.1956 7.58886 13.0702 8.25H14.4493C14.3635 7.62076 14.1713 7.02538 13.8914 6.48259ZM13 5.22506C12.1591 4.33435 11.0239 3.72441 9.75 3.55071V8.25H11.5507C11.7094 7.08641 12.2319 6.03862 13 5.22506ZM13.8914 11.5174C14.1713 10.9746 14.3635 10.3792 14.4493 9.75H13.0702C13.1956 10.4111 13.4837 11.0147 13.8914 11.5174ZM13 12.7749C12.2319 11.9614 11.7094 10.9136 11.5507 9.75H9.75V14.4493C11.0239 14.2756 12.1591 13.6657 13 12.7749ZM4.10865 11.5174C4.51626 11.0147 4.80439 10.4111 4.9298 9.75H3.55071C3.63651 10.3792 3.82873 10.9746 4.10865 11.5174ZM5.00171 12.7767C5.84244 13.6665 6.97691 14.2757 8.25 14.4493V9.75H6.45038C6.29416 10.918 5.77637 11.9626 5.00171 12.7767ZM4.10865 6.48259C3.82873 7.02538 3.63651 7.62076 3.55071 8.25H4.9298C4.80439 7.58886 4.51626 6.98531 4.10865 6.48259ZM5.00361 5.22124C5.76981 6.03517 6.29105 7.0864 6.44936 8.25H8.25V3.55071C6.97787 3.72416 5.84415 4.3326 5.00361 5.22124ZM9 16C5.13401 16 2 12.866 2 9C2 5.13401 5.13401 2 9 2C12.866 2 16 5.13401 16 9C16 12.866 12.866 16 9 16Z" fill="black" />
</svg>
