<svg width="18" height="18" viewBox="0 0 18 18" fill="none" xmlns="http://www.w3.org/2000/svg">
<path fill-rule="evenodd" clip-rule="evenodd" d="M2.5 2H15.5C15.7761 2 16 2.22386 16 2.5V15.75C16 16.0261 15.7761 16.25 15.5 16.25H2.5C2.22386 16.25 2 16.0261 2 15.75V2.5C2 2.22386 2.22386 2 2.5 2ZM3.25 3.25V6.5H14.75V3.25H3.25ZM3.25 7.5V10.75H14.75V7.5H3.25ZM3.25 11.75V15H14.75V11.75H3.25ZM4.5 4.25H5.75V5.5H4.5V4.25ZM7 4.25H13.5V5.5H7V4.25ZM4.5 8.5H5.75V9.75H4.5V8.5ZM7 8.5H13.5V9.75H7V8.5ZM4.5 12.75H5.75V14H4.5V12.75ZM7 12.75H13.5V14H7V12.75Z" fill="black" />
</svg>
