<svg width="18" height="18" viewBox="0 0 18 18" fill="none" xmlns="http://www.w3.org/2000/svg">
<path fill-rule="evenodd" clip-rule="evenodd" d="M2.16843 8.14534C2.07466 8.05157 2.02198 7.9244 2.02198 7.79179V2.84204C2.02198 2.5659 2.24584 2.34204 2.52198 2.34204H7.47173C7.60434 2.34204 7.73151 2.39472 7.82528 2.48849L15.8106 10.4738C16.0058 10.669 16.0058 10.9856 15.8106 11.1809L10.8608 16.1306C10.6656 16.3259 10.349 16.3259 10.1537 16.1306L2.16843 8.14534ZM3.409 7.26459L10.5073 14.3629L14.0428 10.8273L6.94453 3.72906H3.409V7.26459ZM4.85041 5.17047C5.1433 4.87757 5.61817 4.87757 5.91107 5.17047C6.20396 5.46336 6.20396 5.93824 5.91107 6.23113C5.61817 6.52402 5.1433 6.52402 4.85041 6.23113C4.55751 5.93824 4.55751 5.46336 4.85041 5.17047Z" fill="black" fill-opacity="0.58"/>
</svg>
