<svg width="18" height="18" viewBox="0 0 18 18" fill="none" xmlns="http://www.w3.org/2000/svg">
<path fill-rule="evenodd" clip-rule="evenodd" d="M2.33843 8.20528C2.24466 8.11151 2.19198 7.98433 2.19198 7.85173V2.90198C2.19198 2.62584 2.41584 2.40198 2.69198 2.40198H7.64173C7.77433 2.40198 7.90151 2.45466 7.99528 2.54842L15.9806 10.5337C16.1758 10.729 16.1758 11.0456 15.9806 11.2408L11.0308 16.1906C10.8356 16.3858 10.519 16.3858 10.3237 16.1906L2.33843 8.20528ZM5.02041 5.2304C4.62988 5.62093 4.62988 6.25409 5.02041 6.64462C5.41093 7.03514 6.04409 7.03514 6.43462 6.64462C6.82514 6.25409 6.82514 5.62093 6.43462 5.2304C6.04409 4.83988 5.41093 4.83988 5.02041 5.2304Z" fill="black" fill-opacity="0.58"/>
</svg>
