<svg width="18" height="18" viewBox="0 0 18 18" fill="none" xmlns="http://www.w3.org/2000/svg">
<path fill-rule="evenodd" clip-rule="evenodd" d="M5.5 2.75V5H2.5C2.22386 5 2 5.22386 2 5.5V8H16V5.5C16 5.22386 15.7761 5 15.5 5H12.5V2.75C12.5 2.33579 12.1642 2 11.75 2H6.25C5.83579 2 5.5 2.33579 5.5 2.75ZM11 5H7V3.5H11V5Z" fill="black" fill-opacity="0.58"/>
<path d="M16 9H11V10C11 10.2761 10.7761 10.5 10.5 10.5H7.5C7.22386 10.5 7 10.2761 7 10V9H2V15.5C2 15.7761 2.22386 16 2.5 16H15.5C15.7761 16 16 15.7761 16 15.5V9Z" fill="black" fill-opacity="0.58"/>
</svg>
