<svg width="18" height="18" viewBox="0 0 18 18" fill="none" xmlns="http://www.w3.org/2000/svg">
<path d="M4.5 3C4.22386 3 4 3.22386 4 3.5V4C4 4.27614 4.22386 4.5 4.5 4.5H13.5C13.7761 4.5 14 4.27614 14 4V3.5C14 3.22386 13.7761 3 13.5 3H4.5Z" fill="black" fill-opacity="0.58"/>
<path d="M13.3162 10.3486C13.1217 10.538 12.8116 10.5376 12.6176 10.3476L9.75 7.54006V14.5C9.75 14.7761 9.52614 15 9.25 15H8.75C8.47386 15 8.25 14.7761 8.25 14.5V7.54518L5.38767 10.3476C5.19368 10.5376 4.88358 10.538 4.68906 10.3486L4.37632 10.0441C4.17512 9.8482 4.17468 9.52506 4.37533 9.32859L8.27737 5.50818C8.2946 5.48397 8.31425 5.46096 8.33632 5.43947L8.64906 5.13496C8.74741 5.03921 8.8753 4.99197 9.00279 4.99322C9.13017 4.99206 9.25792 5.0393 9.35618 5.13497L9.66891 5.43947C9.69097 5.46095 9.71062 5.48396 9.72785 5.50817L13.6299 9.32859C13.8306 9.52506 13.8301 9.8482 13.6289 10.0441L13.3162 10.3486Z" fill="black" fill-opacity="0.58"/>
</svg>
