<svg width="18" height="18" viewBox="0 0 18 18" fill="none" xmlns="http://www.w3.org/2000/svg">
<path fill-rule="evenodd" clip-rule="evenodd" d="M4.25 9.5V11H5.25C5.38807 11 5.5 11.1119 5.5 11.25V13.75C5.5 13.8881 5.38807 14 5.25 14H2.25C2.11193 14 2 13.8881 2 13.75V11.25C2 11.1119 2.11193 11 2.25 11H3.25V9C3.25 8.72386 3.47386 8.5 3.75 8.5H8.5V7H7.5C7.36193 7 7.25 6.88807 7.25 6.75V4.25C7.25 4.11193 7.36193 4 7.5 4H10.5C10.6381 4 10.75 4.11193 10.75 4.25V6.75C10.75 6.88807 10.6381 7 10.5 7H9.5V8.5H14.25C14.5261 8.5 14.75 8.72386 14.75 9V11H15.75C15.8881 11 16 11.1119 16 11.25V13.75C16 13.8881 15.8881 14 15.75 14H12.75C12.6119 14 12.5 13.8881 12.5 13.75V11.25C12.5 11.1119 12.6119 11 12.75 11H13.75V9.5H9.5V11H10.5C10.6381 11 10.75 11.1119 10.75 11.25V13.75C10.75 13.8881 10.6381 14 10.5 14H7.5C7.36193 14 7.25 13.8881 7.25 13.75V11.25C7.25 11.1119 7.36193 11 7.5 11H8.5V9.5H4.25Z" fill="black" />
</svg>
