<svg width="18" height="18" viewBox="0 0 18 18" fill="none" xmlns="http://www.w3.org/2000/svg">
<path fill-rule="evenodd" clip-rule="evenodd" d="M12.4625 6.9625L11.7059 6.20591C11.316 5.81605 11.4488 5.45023 12.0007 5.38903L15.0093 5.05542C15.2853 5.02481 15.4845 5.21704 15.4526 5.49877L15.113 8.5013C15.0506 9.05287 14.6861 9.18613 14.2941 8.79409L13.5232 8.02316L11.1327 10.4136C10.7791 10.7673 10.2118 10.7861 9.83538 10.4568L8.52582 9.31093L5.51247 12.5754L4.41026 11.558L7.78687 7.89998C8.13607 7.52167 8.72306 7.49037 9.11052 7.82939L10.4359 8.9891L12.4625 6.9625ZM3.5 13.5H15.5C15.7761 13.5 16 13.7239 16 14V14.5C16 14.7761 15.7761 15 15.5 15H2.5C2.22386 15 2 14.7761 2 14.5V3.5C2 3.22386 2.22386 3 2.5 3H3C3.27614 3 3.5 3.22386 3.5 3.5V13.5Z" fill="black" />
</svg>
