<svg width="18" height="18" viewBox="0 0 18 18" fill="none" xmlns="http://www.w3.org/2000/svg">
<path fill-rule="evenodd" clip-rule="evenodd" d="M3.5 14.5H14.5V9.5H13.25C13.1119 9.5 13 9.38807 13 9.25V8.25C13 8.11193 13.1119 8 13.25 8H15.5C15.7761 8 16 8.22386 16 8.5V15.5C16 15.7761 15.7761 16 15.5 16H2.5C2.22386 16 2 15.7761 2 15.5V8.5C2 8.22386 2.22386 8 2.5 8H4.75C4.88807 8 5 8.11193 5 8.25V9.25C5 9.38807 4.88807 9.5 4.75 9.5H3.5V14.5ZM6.06162 5.61646L8.68838 2.38354C8.86035 2.17188 9.13952 2.17172 9.31162 2.38354L11.9384 5.61646C12.1104 5.82813 12.0235 6 11.7441 6H9.75V11.7422C9.75 11.8959 9.6391 12 9.50231 12H8.49769C8.3677 12 8.25 11.8846 8.25 11.7422V6H6.25591C5.98071 6 5.88952 5.82829 6.06162 5.61646Z" fill="black" />
</svg>
