<svg width="18" height="18" viewBox="0 0 18 18" fill="none" xmlns="http://www.w3.org/2000/svg">
<path fill-rule="evenodd" clip-rule="evenodd" d="M9 14C6.14375 14 3.5497 12.4328 1.21786 9.29846C1.08609 9.12135 1.08609 8.87877 1.21786 8.70165C3.54971 5.56724 6.14372 4 9 4C11.8563 4 14.4503 5.56718 16.7821 8.70154C16.9139 8.87865 16.9139 9.12123 16.7821 9.29835C14.4503 12.4328 11.8563 14 9 14ZM9 12.5C11.0619 12.5 13.0619 11.3333 15 9C13.0619 6.66667 11.0619 5.5 9 5.5C6.93814 5.5 4.93814 6.66667 3 9C4.93814 11.3333 6.93814 12.5 9 12.5ZM9 11.75C7.48122 11.75 6.25 10.5188 6.25 9C6.25 7.48122 7.48122 6.25 9 6.25C10.5188 6.25 11.75 7.48122 11.75 9C11.75 10.5188 10.5188 11.75 9 11.75ZM9 10.25C9.69036 10.25 10.25 9.69036 10.25 9C10.25 8.30964 9.69036 7.75 9 7.75C8.30964 7.75 7.75 8.30964 7.75 9C7.75 9.69036 8.30964 10.25 9 10.25Z" fill="black" />
</svg>
