<svg width="18" height="18" viewBox="0 0 18 18" fill="none" xmlns="http://www.w3.org/2000/svg">
<path fill-rule="evenodd" clip-rule="evenodd" d="M2.5 4H15.5C15.7761 4 16 4.22386 16 4.5V14.5C16 14.7761 15.7761 15 15.5 15H2.5C2.22386 15 2 14.7761 2 14.5V4.5C2 4.22386 2.22386 4 2.5 4ZM10.5 7C9.11929 7 8 8.11929 8 9.5C8 10.8807 9.11929 12 10.5 12H14.5V7H10.5ZM10.5 10.25C10.0858 10.25 9.75 9.91421 9.75 9.5C9.75 9.08579 10.0858 8.75 10.5 8.75C10.9142 8.75 11.25 9.08579 11.25 9.5C11.25 9.91421 10.9142 10.25 10.5 10.25Z" fill="black" />
</svg>
