<svg width="18" height="18" viewBox="0 0 18 18" fill="none" xmlns="http://www.w3.org/2000/svg">
<path fill-rule="evenodd" clip-rule="evenodd" d="M11.4548 10.3941L15.19 14.1293C15.3866 14.3259 15.3894 14.6418 15.1869 14.8444L14.8444 15.1869C14.6461 15.3852 14.3206 15.3813 14.1293 15.19L10.3941 11.4548C9.51769 12.1112 8.42925 12.5 7.25 12.5C4.35051 12.5 2 10.1495 2 7.25C2 4.35051 4.35051 2 7.25 2C10.1495 2 12.5 4.35051 12.5 7.25C12.5 8.42925 12.1112 9.51769 11.4548 10.3941ZM7.25 11C9.32107 11 11 9.32107 11 7.25C11 5.17893 9.32107 3.5 7.25 3.5C5.17893 3.5 3.5 5.17893 3.5 7.25C3.5 9.32107 5.17893 11 7.25 11ZM6.5 6.5V4.75H8V6.5H9.75V8H8V9.75H6.5V8H4.75V6.5H6.5Z" fill="black" />
</svg>
