<svg width="18" height="18" viewBox="0 0 18 18" fill="none" xmlns="http://www.w3.org/2000/svg">
<path fill-rule="evenodd" clip-rule="evenodd" d="M11.0909 10H12.9091C15.1684 10 17 11.8316 17 14.0909V14.75C17 14.8881 16.8881 15 16.75 15H7.25C7.11193 15 7 14.8881 7 14.75V14.0909C7 11.8316 8.83156 10 11.0909 10ZM11.75 8.5C10.2312 8.5 9 7.26878 9 5.75C9 4.23122 10.2312 3 11.75 3C13.2688 3 14.5 4.23122 14.5 5.75C14.5 7.26878 13.2688 8.5 11.75 8.5ZM3 8V6.25062C3 6.1122 3.1177 6 3.24769 6H4.25231C4.3891 6 4.5 6.11488 4.5 6.25062V8H6.24938C6.3878 8 6.5 8.1177 6.5 8.24769V9.25231C6.5 9.3891 6.38512 9.5 6.24938 9.5H4.5V11.2494C4.5 11.3878 4.3823 11.5 4.25231 11.5H3.24769C3.1109 11.5 3 11.3851 3 11.2494V9.5H1.25062C1.1122 9.5 1 9.3823 1 9.25231V8.24769C1 8.1109 1.11488 8 1.25062 8H3Z" fill="black" />
</svg>
