<svg width="18" height="18" viewBox="0 0 18 18" fill="none" xmlns="http://www.w3.org/2000/svg">
<path fill-rule="evenodd" clip-rule="evenodd" d="M6.5 13H15.0063C15.2789 13 15.5 13.2213 15.5 13.5078V13.9922C15.5 14.2726 15.2744 14.5 15.0063 14.5H6.5V14.9985C6.5 15.2755 6.28596 15.5 5.99532 15.5H5.00468C4.72596 15.5 4.5 15.2704 4.5 14.9985V14.5H2.99374C2.72106 14.5 2.5 14.2787 2.5 13.9922V13.5078C2.5 13.2274 2.72564 13 2.99374 13H4.5V12.5015C4.5 12.2245 4.71404 12 5.00468 12H5.99532C6.27404 12 6.5 12.2296 6.5 12.5015V13ZM10.5 8.5V8.00146C10.5 7.72451 10.714 7.5 11.0047 7.5H11.9953C12.274 7.5 12.5 7.72964 12.5 8.00146V8.5H15.0063C15.2789 8.5 15.5 8.72133 15.5 9.00783V9.49217C15.5 9.77264 15.2744 10 15.0063 10H12.5V10.4985C12.5 10.7755 12.286 11 11.9953 11H11.0047C10.726 11 10.5 10.7704 10.5 10.4985V10H2.99374C2.72106 10 2.5 9.77867 2.5 9.49217V9.00783C2.5 8.72736 2.72564 8.5 2.99374 8.5H10.5ZM6.5 4H15.0063C15.2789 4 15.5 4.22133 15.5 4.50783V4.99217C15.5 5.27264 15.2744 5.5 15.0063 5.5H6.5V5.99854C6.5 6.27549 6.28596 6.5 5.99532 6.5H5.00468C4.72596 6.5 4.5 6.27036 4.5 5.99854V5.5H2.99374C2.72106 5.5 2.5 5.27867 2.5 4.99217V4.50783C2.5 4.22736 2.72564 4 2.99374 4H4.5V3.50146C4.5 3.22451 4.71404 3 5.00468 3H5.99532C6.27404 3 6.5 3.22964 6.5 3.50146V4Z" fill="black" />
</svg>
