<svg width="18" height="18" viewBox="0 0 18 18" fill="none" xmlns="http://www.w3.org/2000/svg">
<path fill-rule="evenodd" clip-rule="evenodd" d="M5 2H13C14.6569 2 16 3.34315 16 5V13C16 14.6569 14.6569 16 13 16H5C3.34315 16 2 14.6569 2 13V5C2 3.34315 3.34315 2 5 2ZM14.5 5.5C14.5 4.39543 13.6046 3.5 12.5 3.5H5.5C4.39543 3.5 3.5 4.39543 3.5 5.5V12.5C3.5 13.6046 4.39543 14.5 5.5 14.5H12.5C13.6046 14.5 14.5 13.6046 14.5 12.5V5.5ZM8.37 9.5V5.5H9.62V9.5H11.7529C11.8799 9.5 11.9278 9.58425 11.8387 9.68818L9.16129 12.8118C9.07416 12.9135 8.93028 12.9113 8.84427 12.8018L6.40573 9.6982C6.31798 9.58652 6.36062 9.5 6.49707 9.5H8.37Z" fill="black" />
</svg>
