<svg width="18" height="18" viewBox="0 0 18 18" fill="none" xmlns="http://www.w3.org/2000/svg">
<path fill-rule="evenodd" clip-rule="evenodd" d="M4 3.69643C4.17357 3.52287 4.44299 3.50358 4.63786 3.63858L4.70711 3.69643L9.65685 8.64618C9.83042 8.81975 9.84971 9.08917 9.71471 9.28404L9.65685 9.35329L4.70711 14.303C4.53354 14.4766 4.26412 14.4959 4.06925 14.3609L4 14.303L3.64645 13.9495C3.47288 13.7759 3.4536 13.5065 3.58859 13.3116L3.64645 13.2424L7.8893 8.99899L3.64645 4.75709C3.47288 4.58353 3.4536 4.3141 3.58859 4.11924L3.64645 4.04999L4 3.69643ZM9.7 3.69643C9.87357 3.52287 10.143 3.50358 10.3379 3.63858L10.4071 3.69643L15.3569 8.64618C15.5304 8.81975 15.5497 9.08917 15.4147 9.28404L15.3569 9.35329L10.4071 14.303C10.2335 14.4766 9.96412 14.4959 9.76925 14.3609L9.7 14.303L9.34645 13.9495C9.17288 13.7759 9.1536 13.5065 9.28859 13.3116L9.34645 13.2424L13.5893 8.99899L9.34645 4.75709C9.17288 4.58353 9.1536 4.3141 9.28859 4.11924L9.34645 4.04999L9.7 3.69643Z" fill="black" />
</svg>
