<svg width="18" height="18" viewBox="0 0 18 18" fill="none" xmlns="http://www.w3.org/2000/svg">
<path fill-rule="evenodd" clip-rule="evenodd" d="M9.15411 4.75496C9.34899 4.56009 9.34943 4.24426 9.15509 4.04884L8.8051 3.6969C8.61007 3.50078 8.29286 3.50026 8.09719 3.69574L3.14601 8.64209C3.04692 8.74108 2.99805 8.87131 2.99942 9.0011C2.99806 9.1309 3.04692 9.26112 3.14601 9.36011L8.09719 14.3065C8.29286 14.5019 8.61007 14.5014 8.8051 14.3053L9.15509 13.9534C9.34943 13.7579 9.34899 13.4421 9.15411 13.2472L5.65688 9.75001H14.5C14.7761 9.75001 15 9.52615 15 9.25001V8.75001C15 8.47387 14.7761 8.25001 14.5 8.25001H5.65907L9.15411 4.75496Z" fill="black" />
</svg>
