<svg width="18" height="18" viewBox="0 0 18 18" fill="none" xmlns="http://www.w3.org/2000/svg">
<path fill-rule="evenodd" clip-rule="evenodd" d="M3 4H15C16.1046 4 17 4.89543 17 6V12C17 13.1046 16.1046 14 15 14H3C1.89543 14 1 13.1046 1 12V6C1 4.89543 1.89543 4 3 4ZM8.25 7.25V6H6.5C4.84315 6 3.5 7.34315 3.5 9C3.5 10.6569 4.84315 12 6.5 12H8.25V10.75H6.5C5.5335 10.75 4.75 9.9665 4.75 9C4.75 8.0335 5.5335 7.25 6.5 7.25H8.25ZM9.75 10.75V12H11.5C13.1569 12 14.5 10.6569 14.5 9C14.5 7.34315 13.1569 6 11.5 6H9.75V7.25H11.5C12.4665 7.25 13.25 8.0335 13.25 9C13.25 9.9665 12.4665 10.75 11.5 10.75H9.75ZM6.5 8.38V9.63H11.5V8.38H6.5Z" fill="black" />
</svg>
