<svg width="18" height="18" viewBox="0 0 18 18" fill="none" xmlns="http://www.w3.org/2000/svg">
<path fill-rule="evenodd" clip-rule="evenodd" d="M2 9H1.5C1.22386 9 1 8.77614 1 8.5V8C1 7.72386 1.22386 7.5 1.5 7.5H2.5L3.88604 3.34189C3.9541 3.13772 4.14516 3 4.36038 3H13.6396C13.8548 3 14.0459 3.13772 14.114 3.34189L15.5 7.5H16.5C16.7761 7.5 17 7.72386 17 8V8.5C17 8.77614 16.7761 9 16.5 9H16V14C16 14.5523 15.5523 15 15 15H14.5C13.9477 15 13.5 14.5523 13.5 14H4.5C4.5 14.5523 4.05228 15 3.5 15H3C2.44772 15 2 14.5523 2 14V9ZM3.5 9V12.5H14.5V9H3.5ZM6 9.75C6.55228 9.75 7 10.1977 7 10.75C7 11.3023 6.55228 11.75 6 11.75C5.44772 11.75 5 11.3023 5 10.75C5 10.1977 5.44772 9.75 6 9.75ZM12 9.75C12.5523 9.75 13 10.1977 13 10.75C13 11.3023 12.5523 11.75 12 11.75C11.4477 11.75 11 11.3023 11 10.75C11 10.1977 11.4477 9.75 12 9.75ZM5 4.5L4 7.5H14L13 4.5H5Z" fill="black" />
</svg>
