<svg width="18" height="18" viewBox="0 0 18 18" fill="none" xmlns="http://www.w3.org/2000/svg">
<path fill-rule="evenodd" clip-rule="evenodd" d="M13.25 11H14.5C14.7761 11 15 11.2239 15 11.5V16C15 16.2761 14.7761 16.5 14.5 16.5H10.5C10.2239 16.5 10 16.2761 10 16V11.5C10 11.2239 10.2239 11 10.5 11H11.75V9.15549C10.4561 8.82245 9.5 7.64788 9.5 6.25V5.5C9.5 3.84315 10.8431 2.5 12.5 2.5C14.1569 2.5 15.5 3.84315 15.5 5.5V6.25C15.5 7.64788 14.5439 8.82245 13.25 9.15549V11ZM12.5 4C11.6716 4 11 4.67157 11 5.5V6.25C11 7.07843 11.6716 7.75 12.5 7.75C13.3284 7.75 14 7.07843 14 6.25V5.5C14 4.67157 13.3284 4 12.5 4ZM11.5 12.5V15H13.5V12.5H11.5ZM6.5 9V11H7.75C8.02614 11 8.25 11.2239 8.25 11.5V16C8.25 16.2761 8.02614 16.5 7.75 16.5H3.75C3.47386 16.5 3.25 16.2761 3.25 16V11.5C3.25 11.2239 3.47386 11 3.75 11H5V9H4.5C3.67157 9 3 8.32843 3 7.5V3.25C3 2.83579 3.33579 2.5 3.75 2.5C4.16421 2.5 4.5 2.83579 4.5 3.25V7.5H5V3.25C5 2.83579 5.33579 2.5 5.75 2.5C6.16421 2.5 6.5 2.83579 6.5 3.25V7.5H7V3.25C7 2.83579 7.33579 2.5 7.75 2.5C8.16421 2.5 8.5 2.83579 8.5 3.25V7.5C8.5 8.32843 7.82843 9 7 9H6.5ZM4.75 12.5V15H6.75V12.5H4.75Z" fill="black" />
</svg>
