<svg width="18" height="18" viewBox="0 0 18 18" fill="none" xmlns="http://www.w3.org/2000/svg">
<path fill-rule="evenodd" clip-rule="evenodd" d="M15 2.5C15.2761 2.5 15.5 2.72386 15.5 3V12.5C15.5 12.7761 15.2761 13 15 13H11.7071C11.5745 13 11.4473 13.0527 11.3536 13.1464L9.35355 15.1464C9.15829 15.3417 8.84171 15.3417 8.64645 15.1464L6.64645 13.1464C6.55268 13.0527 6.4255 13 6.29289 13H3C2.72386 13 2.5 12.7761 2.5 12.5V3C2.5 2.72386 2.72386 2.5 3 2.5H15ZM5.75 6.5C5.19772 6.5 4.75 6.94772 4.75 7.5C4.75 8.05228 5.19772 8.5 5.75 8.5C6.30228 8.5 6.75 8.05228 6.75 7.5C6.75 6.94772 6.30228 6.5 5.75 6.5ZM9 6.5C8.44772 6.5 8 6.94772 8 7.5C8 8.05228 8.44772 8.5 9 8.5C9.55228 8.5 10 8.05228 10 7.5C10 6.94772 9.55228 6.5 9 6.5ZM12.25 6.5C11.6977 6.5 11.25 6.94772 11.25 7.5C11.25 8.05228 11.6977 8.5 12.25 8.5C12.8023 8.5 13.25 8.05228 13.25 7.5C13.25 6.94772 12.8023 6.5 12.25 6.5Z" fill="black" />
</svg>
