<svg width="18" height="18" viewBox="0 0 18 18" fill="none" xmlns="http://www.w3.org/2000/svg">
<path fill-rule="evenodd" clip-rule="evenodd" d="M12.9266 4.5L14.753 2.67355C14.9483 2.47829 15.2649 2.47829 15.4602 2.67355L15.8137 3.02711C16.009 3.22237 16.009 3.53895 15.8137 3.73421L14 5.54792V13H16.0095C16.2804 13 16.5 13.2213 16.5 13.5078V13.9922C16.5 14.2726 16.2849 14.5 16.0095 14.5H14V16.5095C14 16.7804 13.7787 17 13.4922 17H13.0078C12.7274 17 12.5 16.7849 12.5 16.5095V14.5H4.50965C4.22818 14.5 4 14.2723 4 13.9904V6H1.99048C1.71959 6 1.5 5.77867 1.5 5.49217V5.00783C1.5 4.72736 1.71506 4.5 1.99048 4.5H4V2.49048C4 2.21959 4.22133 2 4.50783 2H4.99217C5.27264 2 5.5 2.21506 5.5 2.49048V4.5H12.9266ZM11.4266 6H5.5V11.9266L11.4266 6ZM12.5 7.04792L6.54792 13H12.5V7.04792Z" fill="black" />
</svg>
