<svg width="18" height="18" viewBox="0 0 18 18" fill="none" xmlns="http://www.w3.org/2000/svg">
<path fill-rule="evenodd" clip-rule="evenodd" d="M9.5 15.5C6.18629 15.5 3.5 12.8137 3.5 9.5H9.5V3.5C12.8137 3.5 15.5 6.18629 15.5 9.5C15.5 12.8137 12.8137 15.5 9.5 15.5ZM9.5 12.5C7.84315 12.5 6.5 11.1569 6.5 9.5H9.5V6.5C11.1569 6.5 12.5 7.84315 12.5 9.5C12.5 11.1569 11.1569 12.5 9.5 12.5ZM8 5.54148C6.74375 5.75224 5.75224 6.74375 5.54148 8H2.5C2.5 4.96243 4.96243 2.5 8 2.5V5.54148Z" fill="black" />
</svg>
