<svg width="18" height="18" viewBox="0 0 18 18" fill="none" xmlns="http://www.w3.org/2000/svg">
<path fill-rule="evenodd" clip-rule="evenodd" d="M7 10.0119L3.16049 5.23537C3.06738 5.11954 3 4.92396 3 4.7861L3 3.49279C3 3.21786 3.22401 3 3.50035 3H14.4997C14.771 3 15 3.22063 15 3.49279V4.7861C15 4.92627 14.9281 5.1251 14.8395 5.23537L11 10.0119V14.2474C11 14.663 10.659 15 10.2476 15H7.75237C7.33685 15 7 14.6562 7 14.2474V10.0119ZM8.5 9.5V13.5H9.5V9.5L13.247 4.78283V4.5H4.74627V4.78283L8.5 9.5Z" fill="black" />
</svg>
