<svg width="18" height="18" viewBox="0 0 18 18" fill="none" xmlns="http://www.w3.org/2000/svg">
<path fill-rule="evenodd" clip-rule="evenodd" d="M13.5 6V4.5C13.5 3.94772 13.0523 3.5 12.5 3.5H5.5C4.94772 3.5 4.5 3.94772 4.5 4.5V6C5.32843 6 6 6.67157 6 7.5V9H12V7.5C12 6.67157 12.6716 6 13.5 6ZM3 6V4C3 2.89543 3.89543 2 5 2H13C14.1046 2 15 2.89543 15 4V6H15.5C16.3284 6 17 6.67157 17 7.5V13.5C17 14.3284 16.3284 15 15.5 15H15V15.5C15 15.7761 14.7761 16 14.5 16H12.5C12.2239 16 12 15.7761 12 15.5V15H6V15.5C6 15.7761 5.77614 16 5.5 16H3.5C3.22386 16 3 15.7761 3 15.5V15H2.5C1.67157 15 1 14.3284 1 13.5V7.5C1 6.67157 1.67157 6 2.5 6H3ZM6 10.5V13.5H12V10.5H6ZM14 7.5C13.7239 7.5 13.5 7.72386 13.5 8V13C13.5 13.2761 13.7239 13.5 14 13.5H15C15.2761 13.5 15.5 13.2761 15.5 13V8C15.5 7.72386 15.2761 7.5 15 7.5H14ZM3 7.5C2.72386 7.5 2.5 7.72386 2.5 8V13C2.5 13.2761 2.72386 13.5 3 13.5H4C4.27614 13.5 4.5 13.2761 4.5 13V8C4.5 7.72386 4.27614 7.5 4 7.5H3Z" fill="black" />
</svg>
