<svg width="18" height="18" viewBox="0 0 18 18" fill="none" xmlns="http://www.w3.org/2000/svg">
<path fill-rule="evenodd" clip-rule="evenodd" d="M9 16.5C4.85786 16.5 1.5 13.1421 1.5 9C1.5 4.85786 4.85786 1.5 9 1.5C13.1421 1.5 16.5 4.85786 16.5 9C16.5 13.1421 13.1421 16.5 9 16.5ZM9 15C12.3137 15 15 12.3137 15 9C15 5.68629 12.3137 3 9 3C5.68629 3 3 5.68629 3 9C3 12.3137 5.68629 15 9 15ZM6.25 8.25C5.69772 8.25 5.25 7.80228 5.25 7.25C5.25 6.69772 5.69772 6.25 6.25 6.25C6.80228 6.25 7.25 6.69772 7.25 7.25C7.25 7.80228 6.80228 8.25 6.25 8.25ZM11.5 8.25C10.9477 8.25 10.5 7.80228 10.5 7.25C10.5 6.69772 10.9477 6.25 11.5 6.25C12.0523 6.25 12.5 6.69772 12.5 7.25C12.5 7.80228 12.0523 8.25 11.5 8.25ZM9 13.5C6.79086 13.5 5 11.7091 5 9.5H13C13 11.7091 11.2091 13.5 9 13.5Z" fill="black" />
</svg>
