<svg width="18" height="18" viewBox="0 0 18 18" fill="none" xmlns="http://www.w3.org/2000/svg">
<path fill-rule="evenodd" clip-rule="evenodd" d="M14.7483 7.64395L14.7483 7.59269C14.7497 7.54447 14.7497 7.54447 14.75 7.49592C14.75 5.97959 13.519 4.75 12 4.75C11.0237 4.75 10.137 5.26147 9.64219 6.08164L9 7.14618L8.35781 6.08164C7.86303 5.26147 6.97631 4.75 6 4.75C4.48102 4.75 3.25 5.97959 3.25 7.49592C3.25028 7.54447 3.25028 7.54447 3.25168 7.64395C3.25029 7.69374 3.25029 7.69374 3.25 7.74563C3.25 9.5864 4.8609 11.6385 8.17501 13.8312L8.60146 14.0997C8.84613 14.2537 9.15754 14.2534 9.4019 14.0989C9.69018 13.9166 9.88655 13.7904 9.98639 13.7232C12.3825 12.1124 13.8677 10.5724 14.4575 9.13886C14.6538 8.66195 14.75 8.19894 14.75 7.74563C14.7497 7.69374 14.7497 7.69374 14.7483 7.64395ZM16.25 7.74563C16.25 8.39994 16.1136 9.05602 15.8447 9.70964C15.122 11.4659 13.443 13.2069 10.8233 14.9681C10.7083 15.0454 10.5033 15.1772 10.2036 15.3667C9.47048 15.8302 8.53624 15.8311 7.80226 15.369C7.44687 15.1453 7.44687 15.1453 7.36159 15.0914C3.65603 12.6399 1.75 10.2119 1.75 7.74563C1.75042 7.66894 1.75042 7.66894 1.75256 7.64443C1.75043 7.57035 1.75043 7.57035 1.75 7.49592C1.75 5.15077 3.65299 3.25 6 3.25C7.14849 3.25 8.21807 3.70926 9 4.48791C9.78193 3.70926 10.8515 3.25 12 3.25C14.347 3.25 16.25 5.15077 16.25 7.49592C16.2496 7.56062 16.2496 7.56908 16.2482 7.61884C16.2496 7.6702 16.2496 7.67875 16.25 7.74563Z" fill="black" />
</svg>
