<svg width="18" height="18" viewBox="0 0 18 18" fill="none" xmlns="http://www.w3.org/2000/svg">
<path fill-rule="evenodd" clip-rule="evenodd" d="M14.5 14.5V3.5H5.5V5.25C5.5 5.38807 5.38807 5.5 5.25 5.5H4.25C4.11193 5.5 4 5.38807 4 5.25V2.5C4 2.22386 4.22386 2 4.5 2H15.5C15.7761 2 16 2.22386 16 2.5V15.5C16 15.7761 15.7761 16 15.5 16H4.5C4.22386 16 4 15.7761 4 15.5V12.75C4 12.6119 4.11193 12.5 4.25 12.5H5.25C5.38807 12.5 5.5 12.6119 5.5 12.75V14.5H14.5ZM8.39221 5.823L11.8578 8.677C12.0781 8.85846 12.0744 9.14461 11.8578 9.323L8.39221 12.177C8.17187 12.3585 8 12.2742 8 11.9956V9.75H2.25781C2.10414 9.75 2 9.6391 2 9.50231V8.49769C2 8.3677 2.11543 8.25 2.25781 8.25H8V6.00439C8 5.71579 8.1756 5.64461 8.39221 5.823Z" fill="black" />
</svg>
