<svg width="18" height="18" viewBox="0 0 18 18" fill="none" xmlns="http://www.w3.org/2000/svg">
<path fill-rule="evenodd" clip-rule="evenodd" d="M5.5 1H12.5C13.6046 1 14.5 1.89543 14.5 3V15C14.5 16.1046 13.6046 17 12.5 17H5.5C4.39543 17 3.5 16.1046 3.5 15V3C3.5 1.89543 4.39543 1 5.5 1ZM5.75 2.5C5.33579 2.5 5 2.83579 5 3.25V14.75C5 15.1642 5.33579 15.5 5.75 15.5H12.25C12.6642 15.5 13 15.1642 13 14.75V3.25C13 2.83579 12.6642 2.5 12.25 2.5H5.75ZM6.5 2.5H11.5V3C11.5 3.27614 11.2761 3.5 11 3.5H7C6.72386 3.5 6.5 3.27614 6.5 3V2.5ZM7 13.5H11C11.2761 13.5 11.5 13.7239 11.5 14V14.25C11.5 14.5261 11.2761 14.75 11 14.75H7C6.72386 14.75 6.5 14.5261 6.5 14.25V14C6.5 13.7239 6.72386 13.5 7 13.5Z" fill="black" />
</svg>
