<svg width="18" height="18" viewBox="0 0 18 18" fill="none" xmlns="http://www.w3.org/2000/svg">
<path fill-rule="evenodd" clip-rule="evenodd" d="M14.5 6.75H16.4903C16.7718 6.75 17 6.96704 17 7.24877V10.7512C17 11.0267 16.7775 11.25 16.4903 11.25H9.93435C9.13231 12.7384 7.55929 13.75 5.75 13.75C3.12665 13.75 1 11.6234 1 9C1 6.37665 3.12665 4.25 5.75 4.25C7.55929 4.25 9.13231 5.26157 9.93435 6.75H10.5V6.00468C10.5 5.72595 10.7151 5.5 10.9905 5.5H14.0095C14.2804 5.5 14.5 5.71404 14.5 6.00468V6.75ZM8.91303 8.25C8.57445 6.81665 7.28679 5.75 5.75 5.75C3.95507 5.75 2.5 7.20507 2.5 9C2.5 10.7949 3.95507 12.25 5.75 12.25C7.28679 12.25 8.57445 11.1834 8.91303 9.75H15.5V8.25H13V7H12V8.25H8.91303ZM4.75 9.75C4.33579 9.75 4 9.41421 4 9C4 8.58579 4.33579 8.25 4.75 8.25C5.16421 8.25 5.5 8.58579 5.5 9C5.5 9.41421 5.16421 9.75 4.75 9.75Z" fill="black" />
</svg>
