<svg width="18" height="18" viewBox="0 0 18 18" fill="none" xmlns="http://www.w3.org/2000/svg">
<path fill-rule="evenodd" clip-rule="evenodd" d="M14 7.5H16.4903C16.7718 7.5 17 7.71575 17 7.99539V10.0046C17 10.2782 16.7775 10.5 16.4903 10.5H10.2583C9.63033 12.3883 7.84919 13.75 5.75 13.75C3.12665 13.75 1 11.6234 1 9C1 6.37665 3.12665 4.25 5.75 4.25C7.84919 4.25 9.63033 5.61171 10.2583 7.5H12V6.49539C12 6.22179 12.214 6 12.5047 6H13.4953C13.774 6 14 6.21575 14 6.49539V7.5ZM4.5 10C5.05228 10 5.5 9.55228 5.5 9C5.5 8.44772 5.05228 8 4.5 8C3.94772 8 3.5 8.44772 3.5 9C3.5 9.55228 3.94772 10 4.5 10Z" fill="black" />
</svg>
