<svg width="18" height="18" viewBox="0 0 18 18" fill="none" xmlns="http://www.w3.org/2000/svg">
<path fill-rule="evenodd" clip-rule="evenodd" d="M11.7917 9.18889L13.535 6.95756C13.3548 6.68243 13.25 6.35345 13.25 6C13.25 5.0335 14.0335 4.25 15 4.25C15.9665 4.25 16.75 5.0335 16.75 6C16.75 6.9665 15.9665 7.75 15 7.75C14.7507 7.75 14.5136 7.69788 14.299 7.60394L12.5196 9.88146C12.6662 10.1374 12.75 10.4339 12.75 10.75C12.75 11.7165 11.9665 12.5 11 12.5C10.0335 12.5 9.25 11.7165 9.25 10.75C9.25 10.5156 9.29608 10.292 9.37967 10.0877L7.91232 8.62032C7.70802 8.70392 7.48439 8.75 7.25 8.75C7.00272 8.75 6.76742 8.69871 6.55416 8.60619L4.44382 11.5108C4.63697 11.7922 4.75 12.1329 4.75 12.5C4.75 13.4665 3.9665 14.25 3 14.25C2.0335 14.25 1.25 13.4665 1.25 12.5C1.25 11.5335 2.0335 10.75 3 10.75C3.23557 10.75 3.46026 10.7965 3.66539 10.8809L5.78706 7.96072C5.60559 7.68495 5.5 7.3548 5.5 7C5.5 6.0335 6.2835 5.25 7.25 5.25C8.2165 5.25 9 6.0335 9 7C9 7.36669 8.88722 7.70704 8.69445 7.98825L10.0118 9.30555C10.293 9.11278 10.6333 9 11 9C11.2849 9 11.5539 9.06809 11.7917 9.18889Z" fill="black" />
</svg>
