<svg width="18" height="18" viewBox="0 0 18 18" fill="none" xmlns="http://www.w3.org/2000/svg">
<path fill-rule="evenodd" clip-rule="evenodd" d="M7.50044 4H14.4996C14.7692 4 15 4.22595 15 4.50468V5.49532C15 5.78596 14.7759 6 14.4996 6H7.50044C7.2308 6 7 5.77405 7 5.49532V4.50468C7 4.21404 7.22405 4 7.50044 4ZM3.50468 4H4.49532C4.78596 4 5 4.22595 5 4.50468V5.49532C5 5.78596 4.77405 6 4.49532 6H3.50468C3.21404 6 3 5.77405 3 5.49532V4.50468C3 4.21404 3.22595 4 3.50468 4ZM7.50044 8H14.4996C14.7692 8 15 8.22596 15 8.50468V9.49532C15 9.78596 14.7759 10 14.4996 10H7.50044C7.2308 10 7 9.77404 7 9.49532V8.50468C7 8.21404 7.22405 8 7.50044 8ZM3.50468 8H4.49532C4.78596 8 5 8.22596 5 8.50468V9.49532C5 9.78596 4.77405 10 4.49532 10H3.50468C3.21404 10 3 9.77404 3 9.49532V8.50468C3 8.21404 3.22595 8 3.50468 8ZM7.50044 12H14.4996C14.7692 12 15 12.226 15 12.5047V13.4953C15 13.786 14.7759 14 14.4996 14H7.50044C7.2308 14 7 13.774 7 13.4953V12.5047C7 12.214 7.22405 12 7.50044 12ZM3.50468 12H4.49532C4.78596 12 5 12.226 5 12.5047V13.4953C5 13.786 4.77405 14 4.49532 14H3.50468C3.21404 14 3 13.774 3 13.4953V12.5047C3 12.214 3.22595 12 3.50468 12Z" fill="black" />
</svg>
