<svg width="18" height="18" viewBox="0 0 18 18" fill="none" xmlns="http://www.w3.org/2000/svg">
<path fill-rule="evenodd" clip-rule="evenodd" d="M9.39066 16.5152C9.36746 16.5442 9.34111 16.5706 9.31207 16.5938C9.09631 16.7661 8.78167 16.7309 8.60931 16.5152C5.20309 12.2512 3.5 9.12116 3.5 7.125C3.5 4.0184 5.96243 1.5 9 1.5C12.0376 1.5 14.5 4.0184 14.5 7.125C14.5 9.12116 12.7969 12.2512 9.39066 16.5152ZM8.96 14.5C11.6 10.9314 12.92 8.41803 12.92 6.96C12.92 4.77295 11.147 3 8.96 3C6.77295 3 5 4.77295 5 6.96C5 8.41803 6.32 10.9314 8.96 14.5ZM9 9.25C7.75736 9.25 6.75 8.24264 6.75 7C6.75 5.75736 7.75736 4.75 9 4.75C10.2426 4.75 11.25 5.75736 11.25 7C11.25 8.24264 10.2426 9.25 9 9.25ZM9 8C9.55228 8 10 7.55228 10 7C10 6.44772 9.55228 6 9 6C8.44772 6 8 6.44772 8 7C8 7.55228 8.44772 8 9 8Z" fill="black" />
</svg>
