<svg width="18" height="18" viewBox="0 0 18 18" fill="none" xmlns="http://www.w3.org/2000/svg">
<path fill-rule="evenodd" clip-rule="evenodd" d="M10.75 5.45006L7.25 4.05006V12.5501L10.75 13.9501V5.45006ZM12.25 5.42863V13.9286L15 12.7501V4.25006L12.25 5.42863ZM5.75 4.07149L3 5.25006V13.7501L5.75 12.5715V4.07149ZM1.8143 3.87434L6.3143 2.07434C6.43351 2.02665 6.56649 2.02665 6.6857 2.07434L11.3144 3.92581C11.4335 3.97347 11.5665 3.9735 11.6856 3.92587L15.8188 2.27404C16.0753 2.17156 16.3662 2.29636 16.4687 2.55278C16.4923 2.6118 16.5044 2.67477 16.5044 2.73833V13.6614C16.5044 13.8659 16.3799 14.0498 16.19 14.1257L11.6856 15.9259C11.5665 15.9735 11.4335 15.9735 11.3144 15.9258L6.6857 14.0743C6.56649 14.0267 6.43351 14.0267 6.3143 14.0743L2.1857 15.7258C1.9293 15.8283 1.63832 15.7036 1.53576 15.4472C1.51214 15.3882 1.5 15.3252 1.5 15.2615V4.33857C1.5 4.13412 1.62448 3.95027 1.8143 3.87434Z" fill="black" />
</svg>
