<svg width="18" height="18" viewBox="0 0 18 18" fill="none" xmlns="http://www.w3.org/2000/svg">
<path fill-rule="evenodd" clip-rule="evenodd" d="M9.93333 3.56419C8.8145 4.21631 8.06667 5.36894 8.06667 6.68364V12.1497C8.06667 13.1341 7.12633 13.9321 5.96667 13.9321C4.80677 13.9321 3.86667 13.1341 3.86667 12.1497C3.86667 11.4491 4.34407 10.8447 5.03683 10.5534C5.08677 10.5325 5.1374 10.5125 5.18943 10.4949C5.62553 10.3167 5.99957 9.98205 6.1384 9.59348C6.3435 9.01978 5.96177 8.55493 5.28603 8.55493C5.11757 8.55493 4.94677 8.58393 4.78203 8.63621C3.80273 8.92258 2.98723 9.54904 2.4977 10.3673C2.18153 10.8961 2 11.5033 2 12.1497C2 14.1809 3.7794 15.8333 5.96667 15.8333C6.7383 15.8333 7.45673 15.6244 8.06667 15.2691C9.1855 14.617 9.93333 13.4644 9.93333 12.1497V6.68364C9.93333 5.69928 10.8734 4.90123 12.0333 4.90123C13.193 4.90123 14.1333 5.69928 14.1333 6.68364C14.1333 7.41419 13.6156 8.04207 12.8743 8.31728C12.3962 8.48055 12.0044 8.83299 11.8551 9.25055C11.6511 9.82139 12.031 10.2843 12.7037 10.2843C12.8561 10.2843 13.0101 10.2577 13.1601 10.2145C13.1846 10.2076 13.2089 10.2 13.2331 10.1926C14.2043 9.90528 15.0149 9.28073 15.5021 8.46605C15.8185 7.93751 16 7.33006 16 6.68364C16 4.65241 14.2206 3 12.0333 3C11.2617 3 10.5433 3.2089 9.93333 3.56419Z" fill="black" />
</svg>
