<svg width="18" height="18" viewBox="0 0 18 18" fill="none" xmlns="http://www.w3.org/2000/svg">
<path d="M9 2C10.3807 2 11.5 3.11929 11.5 4.5C11.5 5.6192 10.7646 6.56663 9.75057 6.88537L9.75 8H13.25C13.7628 8 14.1855 8.38604 14.2433 8.88338L14.25 9L14.2506 11.1146C15.2646 11.4334 16 12.3808 16 13.5C16 14.8807 14.8807 16 13.5 16C12.1193 16 11 14.8807 11 13.5C11 12.3804 11.7359 11.4328 12.7504 11.1143L12.75 9.5H5.25L5.25057 11.1146C6.26455 11.4334 7 12.3808 7 13.5C7 14.8807 5.88071 16 4.5 16C3.11929 16 2 14.8807 2 13.5C2 12.3804 2.73593 11.4328 3.75042 11.1143L3.75 9C3.75 8.48716 4.13604 8.06449 4.63338 8.00673L4.75 8H8.25L8.25042 6.88568C7.23593 6.56725 6.5 5.61957 6.5 4.5C6.5 3.11929 7.61929 2 9 2ZM4.5 12.5C3.94772 12.5 3.5 12.9477 3.5 13.5C3.5 14.0523 3.94772 14.5 4.5 14.5C5.05228 14.5 5.5 14.0523 5.5 13.5C5.5 12.9477 5.05228 12.5 4.5 12.5ZM13.5 12.5C12.9477 12.5 12.5 12.9477 12.5 13.5C12.5 14.0523 12.9477 14.5 13.5 14.5C14.0523 14.5 14.5 14.0523 14.5 13.5C14.5 12.9477 14.0523 12.5 13.5 12.5ZM9 3.5C8.44772 3.5 8 3.94772 8 4.5C8 5.05228 8.44772 5.5 9 5.5C9.55228 5.5 10 5.05228 10 4.5C10 3.94772 9.55228 3.5 9 3.5Z" fill="black" />
</svg>
