<svg width="18" height="18" viewBox="0 0 18 18" fill="none" xmlns="http://www.w3.org/2000/svg">
<path fill-rule="evenodd" clip-rule="evenodd" d="M13.25 10C15.183 10 16.75 11.567 16.75 13.5V15H12.2494L12.25 13.5H15.25L15.2445 13.3507C15.1682 12.3159 14.3044 11.5 13.25 11.5L11.7824 11.5002C11.4927 10.9172 11.0803 10.406 10.579 10.0004L13.25 10ZM7.75 10C9.683 10 11.25 11.567 11.25 13.5V15H1.25V13.5C1.25 11.567 2.817 10 4.75 10H7.75ZM7.75 11.5H4.75C3.69564 11.5 2.83183 12.3159 2.75549 13.3507L2.75 13.5H9.75L9.74451 13.3507C9.66817 12.3159 8.80436 11.5 7.75 11.5ZM11.2234 3C12.8802 3 14.2234 4.34315 14.2234 6C14.2234 7.65685 12.8802 9 11.2234 9C10.5552 9 9.938 8.78154 9.43937 8.41215C9.75218 8.00137 9.98585 7.52827 10.1201 7.01496C10.3929 7.31308 10.7863 7.5 11.2234 7.5C12.0518 7.5 12.7234 6.82843 12.7234 6C12.7234 5.17157 12.0518 4.5 11.2234 4.5C10.7868 4.5 10.3938 4.68649 10.1197 4.98414C9.98561 4.47128 9.75208 3.99854 9.44104 3.58773C9.93884 3.21816 10.5556 3 11.2234 3ZM6.25 3C7.90685 3 9.25 4.34315 9.25 6C9.25 7.65685 7.90685 9 6.25 9C4.59315 9 3.25 7.65685 3.25 6C3.25 4.34315 4.59315 3 6.25 3ZM6.25 4.5C5.42157 4.5 4.75 5.17157 4.75 6C4.75 6.82843 5.42157 7.5 6.25 7.5C7.07843 7.5 7.75 6.82843 7.75 6C7.75 5.17157 7.07843 4.5 6.25 4.5Z" fill="black" />
</svg>
