<svg width="18" height="18" viewBox="0 0 18 18" fill="none" xmlns="http://www.w3.org/2000/svg">
<path fill-rule="evenodd" clip-rule="evenodd" d="M6.19049 2.91449C5.99573 2.43622 5.41026 2.25595 4.97758 2.53785C4.33745 2.95489 3.80018 3.51825 3.4156 4.17839C3.2233 4.50848 3.15211 4.89483 3.23891 5.26686C3.53356 6.52974 4.41335 9.58059 6.37868 11.5459C8.344 13.5112 11.3948 14.391 12.6577 14.6857C13.0298 14.7725 13.4161 14.7013 13.7462 14.509C14.4063 14.1244 14.9697 13.5871 15.3867 12.947C15.6686 12.5143 15.4884 11.9289 15.0101 11.7341L12.325 10.6407C12.0514 10.5293 11.7406 10.5592 11.4933 10.7207L10.3949 11.4384C10.1908 11.5717 9.94164 11.6173 9.70933 11.5436C9.19253 11.3796 8.23874 11.0087 7.57733 10.3473C6.9154 9.68532 6.54632 8.73247 6.38372 8.21712C6.3108 7.98601 6.35607 7.73834 6.48811 7.53512L7.20563 6.43073C7.36612 6.18371 7.39557 5.87379 7.28447 5.60097L6.19049 2.91449Z" fill="black" />
</svg>
