<svg width="18" height="18" viewBox="0 0 18 18" fill="none" xmlns="http://www.w3.org/2000/svg">
<path fill-rule="evenodd" clip-rule="evenodd" d="M9 1C10.3912 1 11.6994 1.35509 12.839 1.97958L11.7217 3.09552C10.8937 2.71325 9.97178 2.5 9 2.5C5.41015 2.5 2.5 5.41015 2.5 9C2.5 12.5899 5.41015 15.5 9 15.5C12.5899 15.5 15.5 12.5899 15.5 9C15.5 8.02822 15.2867 7.10625 14.9045 6.27834L16.0204 5.16103C16.6449 6.30062 17 7.60884 17 9C17 13.4183 13.4183 17 9 17C4.58172 17 1 13.4183 1 9C1 4.58172 4.58172 1 9 1ZM9 4C9.54724 4 10.074 4.08792 10.5668 4.25039L9.30457 5.51307C9.2042 5.50442 9.10262 5.5 9 5.5C7.067 5.5 5.5 7.067 5.5 9C5.5 10.933 7.067 12.5 9 12.5C10.933 12.5 12.5 10.933 12.5 9C12.5 8.89841 12.4957 8.79782 12.4872 8.69843L13.7499 7.43423C13.9122 7.92676 14 8.45313 14 9C14 11.7614 11.7614 14 9 14C6.23858 14 4 11.7614 4 9C4 6.23858 6.23858 4 9 4ZM15 3C15.2929 3.29289 15.2929 3.76777 15 4.06066L10.4495 8.61246C10.4824 8.73608 10.5 8.86599 10.5 9C10.5 9.82843 9.82843 10.5 9 10.5C8.17157 10.5 7.5 9.82843 7.5 9C7.5 8.17157 8.17157 7.5 9 7.5C9.13401 7.5 9.26392 7.51757 9.38754 7.55054L13.9393 3C14.2322 2.70711 14.7071 2.70711 15 3Z" fill="black" />
</svg>
