<svg width="18" height="18" viewBox="0 0 18 18" fill="none" xmlns="http://www.w3.org/2000/svg">
<path fill-rule="evenodd" clip-rule="evenodd" d="M9 2C12.866 2 16 5.13401 16 9C16 12.866 12.866 16 9 16C5.13401 16 2 12.866 2 9C2 5.13401 5.13401 2 9 2ZM5.20129 7.79785C5.11451 7.72553 4.98553 7.73726 4.91321 7.82404L3.44171 9.58995L3.41003 9.63842C3.39287 9.67284 3.38379 9.71101 3.38379 9.75C3.38379 9.88807 3.49572 10 3.63379 10H4.96484L5.01184 10.1739C5.51842 11.8977 7.11224 13.1562 9 13.1562C9.47149 13.1562 9.93195 13.0774 10.366 12.9264L9.26215 11.8319C9.17554 11.8398 9.08807 11.8438 9 11.8438C7.78136 11.8438 6.74175 11.0772 6.33704 10L6.92365 9.99996C6.97814 9.99996 7.03039 9.97822 7.06879 9.93955C7.14839 9.8594 7.14791 9.72989 7.06775 9.65028L5.21448 7.80985C5.21026 7.80566 5.20586 7.80166 5.20129 7.79785ZM6.01654 5.14679C5.85663 4.98795 5.59834 4.98838 5.43896 5.14776L5.14874 5.438C4.98952 5.5983 4.9904 5.85732 5.1507 6.01654L11.9835 12.8036C12.1434 12.9624 12.4017 12.962 12.561 12.8026L12.8503 12.5133L12.8984 12.4556C13.0084 12.2957 12.9918 12.0754 12.8493 11.9338L6.01654 5.14679ZM9 4.84375C8.54116 4.84375 8.09338 4.91852 7.67096 5.06093L8.7821 6.16447C8.85421 6.15901 8.92688 6.15625 9 6.15625C10.2186 6.15625 11.2583 6.92279 11.663 8L11.1262 7.99973C11.0717 7.9997 11.0194 8.02145 10.981 8.06015C10.9014 8.14031 10.9018 8.26982 10.982 8.34942L12.8079 10.1626L12.8211 10.1746C12.9079 10.2469 13.0369 10.2352 13.1092 10.1484L14.5583 8.41005L14.5899 8.36179C14.6407 8.26035 14.6172 8.13371 14.5263 8.05795C14.4814 8.0205 14.4247 8 14.3662 8H13.0352L12.9882 7.8261C12.4816 6.10229 10.8878 4.84375 9 4.84375Z" fill="black" />
</svg>
