<svg width="18" height="18" viewBox="0 0 18 18" fill="none" xmlns="http://www.w3.org/2000/svg">
<path fill-rule="evenodd" clip-rule="evenodd" d="M2.5 14.9231V3.07692C2.5 2.21538 2.71727 2 3.59 2H12.243C12.3873 2 12.58 2.08 12.6787 2.17868L15.3213 4.82132C15.4258 4.92584 15.5 5.10982 15.5 5.24529V14.9231C15.5 15.7846 15.2827 16 14.41 16H3.59C2.71727 16 2.5 15.7846 2.5 14.9231ZM11.5 3.5H4V14.5H14V6H11.5V3.5ZM6 5.5H10V6.75H6V5.5ZM6 8.5H12V9.75H6V8.5ZM6 11.5H12V12.75H6V11.5Z" fill="black" />
</svg>
