<svg width="18" height="18" viewBox="0 0 18 18" fill="none" xmlns="http://www.w3.org/2000/svg">
<path fill-rule="evenodd" clip-rule="evenodd" d="M5.30751 9.84427L4.50048 13.25L13.5 9.00002L4.50001 4.75002L5.32118 8.15714L8.56991 8.48201C8.67215 8.49223 8.75001 8.57827 8.75001 8.68102V9.31902C8.75001 9.42177 8.67215 9.50781 8.56991 9.51803L5.30751 9.84427ZM15.7397 9.44782L3.22039 15.7082C2.9734 15.8317 2.67306 15.7316 2.54956 15.4846C2.49744 15.3804 2.48336 15.2612 2.50976 15.1477L3.93134 9.03432L2.50698 2.85126C2.44499 2.58216 2.61288 2.31377 2.88198 2.25178C2.99519 2.2257 3.11394 2.23985 3.21785 2.29181L15.7397 8.55341C15.9867 8.67692 16.0868 8.97726 15.9633 9.22424C15.9149 9.32099 15.8365 9.39944 15.7397 9.44782Z" fill="black" />
</svg>
