<svg width="18" height="18" viewBox="0 0 18 18" fill="none" xmlns="http://www.w3.org/2000/svg">
<path fill-rule="evenodd" clip-rule="evenodd" d="M13.9687 6.10431C14.2271 6.54673 14.4281 7.02677 14.5615 7.53422L15.5742 7.68613C15.8189 7.72284 16 7.9331 16 8.18059V9.81941C16 10.0669 15.8189 10.2772 15.5742 10.3139L14.5615 10.4658C14.4281 10.9732 14.2271 11.4533 13.9687 11.8957L14.5777 12.7196C14.7248 12.9186 14.7042 13.1953 14.5292 13.3703L13.3703 14.5292C13.1953 14.7042 12.9186 14.7248 12.7196 14.5777L11.8957 13.9687C11.4533 14.2271 10.9732 14.4281 10.4658 14.5615L10.3139 15.5742C10.2772 15.8189 10.0669 16 9.81941 16H8.18059C7.9331 16 7.72284 15.8189 7.68613 15.5742L7.53422 14.5615C7.02677 14.4281 6.54673 14.2271 6.10431 13.9687L5.28041 14.5777C5.08138 14.7248 4.80467 14.7042 4.62966 14.5292L3.47084 13.3703C3.29584 13.1953 3.2752 12.9186 3.42231 12.7196L4.03128 11.8957C3.77288 11.4533 3.57189 10.9732 3.43851 10.4658L2.42583 10.3139C2.18107 10.2772 2 10.0669 2 9.81941V8.18059C2 7.9331 2.18107 7.72284 2.42583 7.68613L3.43851 7.53422C3.57189 7.02677 3.77288 6.54673 4.03128 6.10431L3.42231 5.28041C3.2752 5.08138 3.29584 4.80467 3.47084 4.62966L4.62966 3.47084C4.80467 3.29584 5.08138 3.2752 5.28041 3.42231L6.10431 4.03128C6.54673 3.77288 7.02677 3.57189 7.53422 3.43851L7.68613 2.42583C7.72284 2.18107 7.9331 2 8.18059 2H9.81941C10.0669 2 10.2772 2.18107 10.3139 2.42583L10.4658 3.43851C10.9732 3.57189 11.4533 3.77288 11.8957 4.03128L12.7196 3.42231C12.9186 3.2752 13.1953 3.29584 13.3703 3.47084L14.5292 4.62966C14.7042 4.80467 14.7248 5.08138 14.5777 5.28041L13.9687 6.10431ZM9 11.5C10.3807 11.5 11.5 10.3807 11.5 9C11.5 7.61929 10.3807 6.5 9 6.5C7.61929 6.5 6.5 7.61929 6.5 9C6.5 10.3807 7.61929 11.5 9 11.5Z" fill="black" />
</svg>
