<svg width="18" height="18" viewBox="0 0 18 18" fill="none" xmlns="http://www.w3.org/2000/svg">
<path fill-rule="evenodd" clip-rule="evenodd" d="M3.43851 10.4658L2.42583 10.3139C2.18107 10.2772 2 10.0669 2 9.81941V8.18059C2 7.9331 2.18107 7.72284 2.42583 7.68613L3.43851 7.53422C3.5698 7.03471 3.76661 6.56176 4.01919 6.12511L3.37627 5.25528C3.22916 5.05625 3.2498 4.77954 3.42481 4.60453L4.58362 3.44572C4.75863 3.27071 5.03534 3.25007 5.23437 3.39718L6.09758 4.03521C6.54186 3.77492 7.0242 3.57256 7.53422 3.43851L7.68613 2.42583C7.72284 2.18107 7.9331 2 8.18059 2H9.81941C10.0669 2 10.2772 2.18107 10.3139 2.42583L10.4658 3.43851C10.9669 3.57021 11.4412 3.76785 11.879 4.02158L12.7238 3.39718C12.9228 3.25007 13.1995 3.27071 13.3746 3.44572L14.5334 4.60453C14.7084 4.77954 14.729 5.05625 14.5819 5.25528L13.9624 6.09347C14.2238 6.53888 14.427 7.02262 14.5615 7.53422L15.5742 7.68613C15.8189 7.72284 16 7.9331 16 8.18059V9.81941C16 10.0669 15.8189 10.2772 15.5742 10.3139L14.5615 10.4658C14.427 10.9774 14.2238 11.4611 13.9624 11.9065L14.5819 12.7447C14.729 12.9437 14.7084 13.2205 14.5334 13.3955L13.3746 14.5543C13.1995 14.7293 12.9228 14.7499 12.7238 14.6028L11.879 13.9784C11.4412 14.2321 10.9669 14.4298 10.4658 14.5615L10.3139 15.5742C10.2772 15.8189 10.0669 16 9.81941 16H8.18059C7.9331 16 7.72284 15.8189 7.68613 15.5742L7.53422 14.5615C7.0242 14.4274 6.54186 14.2251 6.09758 13.9648L5.23437 14.6028C5.03534 14.7499 4.75863 14.7293 4.58362 14.5543L3.42481 13.3955C3.2498 13.2205 3.22916 12.9437 3.37627 12.7447L4.01919 11.8749C3.76661 11.4382 3.5698 10.9653 3.43851 10.4658ZM9.67217 13.2001C10.3469 13.0991 10.9727 12.8482 11.5146 12.4824L12.7386 13.4224L13.4015 12.7595L12.4973 11.582C12.9454 11.0294 13.2651 10.3684 13.4111 9.64448L14.75 9.46875V8.53125L13.4838 8.36506C13.415 7.55277 13.1304 6.80197 12.6876 6.17019L13.4015 5.24047L12.7386 4.57755L11.8453 5.26356C11.2174 4.7505 10.4484 4.40371 9.6053 4.29036L9.46875 3.25H8.53125L8.3947 4.29036C7.54258 4.40492 6.76604 4.75798 6.13446 5.28016L5.21955 4.57755L4.55664 5.24047L5.29258 6.19877C4.86112 6.82457 4.58401 7.56499 4.51623 8.36506L3.25 8.53125V9.46875L4.5889 9.64448C4.73256 10.3568 5.04445 11.0082 5.48133 11.5554L4.55664 12.7595L5.21955 13.4224L6.46324 12.4674C7.01016 12.8413 7.64382 13.0977 8.32783 13.2001L8.53125 14.75H9.46875L9.67217 13.2001ZM9 11.25C7.61929 11.25 6.5 10.1307 6.5 8.75C6.5 7.36929 7.61929 6.25 9 6.25C10.3807 6.25 11.5 7.36929 11.5 8.75C11.5 10.1307 10.3807 11.25 9 11.25ZM9 10C9.69036 10 10.25 9.44036 10.25 8.75C10.25 8.05964 9.69036 7.5 9 7.5C8.30964 7.5 7.75 8.05964 7.75 8.75C7.75 9.44036 8.30964 10 9 10Z" fill="black" />
</svg>
