<svg width="18" height="18" viewBox="0 0 18 18" fill="none" xmlns="http://www.w3.org/2000/svg">
<path fill-rule="evenodd" clip-rule="evenodd" d="M9.05844 13.1203L5.54679 14.9665C5.30237 15.095 5.00005 15.001 4.87155 14.7566C4.82038 14.6593 4.80273 14.5478 4.82132 14.4394L5.49198 10.5291L2.65099 7.75987C2.45325 7.56712 2.44921 7.25056 2.64196 7.05282C2.71871 6.97408 2.81928 6.92284 2.9281 6.90702L6.85425 6.33652L8.61008 2.77883C8.73229 2.5312 9.0321 2.42953 9.27973 2.55174C9.37833 2.60041 9.45815 2.68022 9.50681 2.77883L11.2626 6.33652L15.1888 6.90702C15.4621 6.94673 15.6514 7.20045 15.6117 7.47373C15.5959 7.58255 15.5446 7.68312 15.4659 7.75987L12.6249 10.5291L13.2956 14.4394C13.3423 14.7116 13.1595 14.9701 12.8873 15.0168C12.7789 15.0353 12.6674 15.0177 12.5701 14.9665L9.05844 13.1203ZM9.05844 11.7453L11.8504 13.2132L11.3172 10.1043L13.576 7.9025L10.4544 7.44892L9.05844 4.62034L7.66245 7.44892L4.54093 7.9025L6.79968 10.1043L6.26646 13.2132L9.05844 11.7453Z" fill="black" />
</svg>
