<svg width="18" height="18" viewBox="0 0 18 18" fill="none" xmlns="http://www.w3.org/2000/svg">
<path fill-rule="evenodd" clip-rule="evenodd" d="M8.99997 13.25L5.48832 15.0962C5.2439 15.2247 4.94158 15.1307 4.81308 14.8863C4.76191 14.7889 4.74426 14.6775 4.76284 14.5691L5.43351 10.6588L2.59252 7.88951C2.39478 7.69676 2.39073 7.3802 2.58349 7.18246C2.66024 7.10372 2.76081 7.05248 2.86963 7.03666L6.79578 6.46616L8.5516 2.90847C8.67381 2.66084 8.97363 2.55917 9.22125 2.68138C9.31986 2.73005 9.39967 2.80986 9.44834 2.90847L11.2042 6.46616L15.1303 7.03666C15.4036 7.07637 15.5929 7.33009 15.5532 7.60337C15.5374 7.71218 15.4862 7.81276 15.4074 7.88951L12.5664 10.6588L13.2371 14.5691C13.2838 14.8412 13.101 15.0997 12.8288 15.1464C12.7204 15.165 12.609 15.1473 12.5116 15.0962L8.99997 13.25Z" fill="black" />
</svg>
