<svg width="18" height="18" viewBox="0 0 18 18" fill="none" xmlns="http://www.w3.org/2000/svg">
<path fill-rule="evenodd" clip-rule="evenodd" d="M13.9962 10.5C16.0672 10.5 17.7462 12.1789 17.7462 14.25C17.7462 16.3211 16.0672 18 13.9962 18C11.9251 18 10.2462 16.3211 10.2462 14.25C10.2462 12.1789 11.9251 10.5 13.9962 10.5ZM15.9962 13.75H11.9962V14.75H15.9962V13.75ZM14.9962 2C15.2723 2 15.4962 2.22386 15.4962 2.5V4.5L17.2522 9.32913C17.3466 9.58864 17.2127 9.87553 16.9532 9.9699C16.8984 9.98981 16.8406 10 16.7823 10H16.632L16.6294 9.99874L3.99617 10V15L9.05218 15.0009C9.13229 15.5328 9.29619 16.0372 9.53 16.5004L2.99617 16.5C2.72003 16.5 2.49617 16.2761 2.49617 16V10H1.21002C0.93388 10 0.710022 9.77614 0.710022 9.5C0.710022 9.44172 0.72021 9.3839 0.740125 9.32913L2.49617 4.5V2.5C2.49617 2.22386 2.72003 2 2.99617 2H14.9962ZM11.2865 5.9H9.72617V8.5H11.6519L11.2865 5.9ZM13.9962 5.9H12.7508L13.1162 8.5H14.9962L13.9962 5.9ZM8.27617 5.9H6.69839L6.33298 8.5H8.27617V5.9ZM5.23414 5.9H3.99617L2.99617 8.5H4.86873L5.23414 5.9ZM13.9962 3.5H3.99617V4.5H13.9962V3.5Z" fill="black" />
</svg>
