<svg width="18" height="18" viewBox="0 0 18 18" fill="none" xmlns="http://www.w3.org/2000/svg">
<path fill-rule="evenodd" clip-rule="evenodd" d="M11.2904 5.9H9.73002V8.5H11.6558L11.2904 5.9ZM12.7546 5.9L13.12 8.5H15L14 5.9H12.7546ZM6.70223 5.9L6.33682 8.5H8.28002V5.9H6.70223ZM5.23798 5.9H4.00002L3.00002 8.5H4.87257L5.23798 5.9ZM4.00002 4.5H14V3.5H4.00002V4.5ZM2.50002 10H1.21387C0.937725 10 0.713867 9.77614 0.713867 9.5C0.713867 9.44172 0.724055 9.3839 0.74397 9.32913L2.50002 4.5V2.5C2.50002 2.22386 2.72387 2 3.00002 2H15C15.2762 2 15.5 2.22386 15.5 2.5V4.5L17.2561 9.32913C17.3504 9.58864 17.2166 9.87553 16.957 9.9699C16.9023 9.98981 16.8444 10 16.7862 10H15.5V16C15.5 16.2761 15.2762 16.5 15 16.5H3.00002C2.72387 16.5 2.50002 16.2761 2.50002 16V10ZM4.00002 10V15H14V10H4.00002ZM7.50002 15V12.5H6.50002V15H5.00002V11H9.00002V15H7.50002Z" fill="black" />
</svg>
