<svg width="18" height="18" viewBox="0 0 18 18" fill="none" xmlns="http://www.w3.org/2000/svg">
<path fill-rule="evenodd" clip-rule="evenodd" d="M13 15C13 14.4477 12.5523 14 12 14C11.4477 14 11 14.4477 11 15H1.5C1.22386 15 1 14.7761 1 14.5V4.5C1 4.22386 1.22386 4 1.5 4H16.5C16.7761 4 17 4.22386 17 4.5V14.5C17 14.7761 16.7761 15 16.5 15H13ZM12 5C12.5523 5 13 4.55228 13 4H11C11 4.55228 11.4477 5 12 5ZM4 7.5V9H9V7.5H4ZM4 10V11.5H9V10H4ZM11.25 10V11.5H12.75V10H11.25ZM11.25 7.5V9H12.75V7.5H11.25Z" fill="black" />
</svg>
