<svg width="18" height="18" viewBox="0 0 18 18" fill="none" xmlns="http://www.w3.org/2000/svg">
<path fill-rule="evenodd" clip-rule="evenodd" d="M5.5 5H12.5C14.7091 5 16.5 6.79086 16.5 9C16.5 11.2091 14.7091 13 12.5 13H5.5C3.29086 13 1.5 11.2091 1.5 9C1.5 6.79086 3.29086 5 5.5 5ZM5.5 6.5C4.11929 6.5 3 7.61929 3 9C3 10.3807 4.11929 11.5 5.5 11.5H12.5C13.8807 11.5 15 10.3807 15 9C15 7.61929 13.8807 6.5 12.5 6.5H5.5ZM5.5 10.5C4.67157 10.5 4 9.82843 4 9C4 8.17157 4.67157 7.5 5.5 7.5C6.32843 7.5 7 8.17157 7 9C7 9.82843 6.32843 10.5 5.5 10.5Z" fill="black" />
</svg>
