<svg width="18" height="18" viewBox="0 0 18 18" fill="none" xmlns="http://www.w3.org/2000/svg">
<path fill-rule="evenodd" clip-rule="evenodd" d="M15.5 5C15.7762 5 16 5.22388 16 5.5V15.5C16 15.7761 15.7762 16 15.5 16H2.5C2.22385 16 2 15.7761 2 15.5V5.5C2 5.22388 2.22385 5 2.5 5H5.5V2.5C5.5 2.22388 5.72385 2 6 2H12C12.2762 2 12.5 2.22388 12.5 2.5V5H15.5ZM14.5 8H3.5V6.5H14.5V8ZM11 5V3.5H7V5H11ZM3.5 14.5V9.5H6.25V10.25C6.25 10.9403 6.80963 11.5 7.5 11.5H10.5C11.1904 11.5 11.75 10.9403 11.75 10.25V9.5H14.5V14.5H3.5ZM7.75 10V9.5H10.25V10H7.75Z" fill="black" />
</svg>
