<svg width="18" height="18" viewBox="0 0 18 18" fill="none" xmlns="http://www.w3.org/2000/svg">
<path fill-rule="evenodd" clip-rule="evenodd" d="M15.13 11H16.25C16.5261 11 16.75 11.2239 16.75 11.5V14.5C16.75 14.7761 16.5261 15 16.25 15H12.75C12.4739 15 12.25 14.7761 12.25 14.5V11.5C12.25 11.2239 12.4739 11 12.75 11H13.88V9.75H9.62V11H10.75C11.0261 11 11.25 11.2239 11.25 11.5V14.5C11.25 14.7761 11.0261 15 10.75 15H7.25C6.97386 15 6.75 14.7761 6.75 14.5V11.5C6.75 11.2239 6.97386 11 7.25 11H8.37V9.75H4.12V11H5.25C5.52614 11 5.75 11.2239 5.75 11.5V14.5C5.75 14.7761 5.52614 15 5.25 15H1.75C1.47386 15 1.25 14.7761 1.25 14.5V11.5C1.25 11.2239 1.47386 11 1.75 11H2.87V9.5C2.87 8.94772 3.31772 8.5 3.87 8.5H8.37V7H7.25C6.97386 7 6.75 6.77614 6.75 6.5V3.5C6.75 3.22386 6.97386 3 7.25 3H10.75C11.0261 3 11.25 3.22386 11.25 3.5V6.5C11.25 6.77614 11.0261 7 10.75 7H9.62V8.5H14.13C14.6823 8.5 15.13 8.94772 15.13 9.5V11ZM8 4.25V5.75H10V4.25H8ZM8 12.25V13.75H10V12.25H8ZM2.5 12.25V13.75H4.5V12.25H2.5ZM13.5 12.25V13.75H15.5V12.25H13.5Z" fill="black" />
</svg>
