<svg width="18" height="18" viewBox="0 0 18 18" fill="none" xmlns="http://www.w3.org/2000/svg">
<path fill-rule="evenodd" clip-rule="evenodd" d="M13 7.33333L16.2279 4.64343C16.6543 4.28807 17 4.45566 17 4.9954V13.0046C17 13.5543 16.6602 13.7169 16.2279 13.3566L13 10.6667V13.4904C13 13.7718 12.771 14 12.4997 14H1.50035C1.22401 14 1 13.7723 1 13.4904V4.50965C1 4.22818 1.229 4 1.50035 4H12.4997C12.776 4 13 4.22765 13 4.50965V7.33333ZM2.5 5.5V12.5H11.5V5.5H2.5ZM15.5 7.33489L13.5 9.00156L15.5 10.6682V7.33489Z" fill="black" />
</svg>
