<svg width="18" height="18" viewBox="0 0 18 18" fill="none" xmlns="http://www.w3.org/2000/svg">
<path fill-rule="evenodd" clip-rule="evenodd" d="M15 6.5V5.5H3V13.5H15V12.5H11C9.34315 12.5 8 11.1569 8 9.5C8 7.84315 9.34315 6.5 11 6.5H15ZM2 4H16C16.2761 4 16.5 4.22386 16.5 4.5V14.5C16.5 14.7761 16.2761 15 16 15H2C1.72386 15 1.5 14.7761 1.5 14.5V4.5C1.5 4.22386 1.72386 4 2 4ZM11 8C10.1716 8 9.5 8.67157 9.5 9.5C9.5 10.3284 10.1716 11 11 11H15V8H11ZM11 10.25C10.5858 10.25 10.25 9.91421 10.25 9.5C10.25 9.08579 10.5858 8.75 11 8.75C11.4142 8.75 11.75 9.08579 11.75 9.5C11.75 9.91421 11.4142 10.25 11 10.25Z" fill="black" />
</svg>
