<svg width="18" height="18" viewBox="0 0 18 18" fill="none" xmlns="http://www.w3.org/2000/svg">
<path fill-rule="evenodd" clip-rule="evenodd" d="M13 13.4722V16.5C13 16.7761 12.7761 17 12.5 17H5.5C5.22386 17 5 16.7761 5 16.5V13.4722C3.7725 12.3736 3 10.777 3 9C3 7.223 3.7725 5.62643 5 4.52779V1.5C5 1.22386 5.22386 1 5.5 1H12.5C12.7761 1 13 1.22386 13 1.5V4.52779C14.2275 5.62643 15 7.223 15 9C15 10.777 14.2275 12.3736 13 13.4722ZM6.59829 14.5H6.5V15.5H11.5V14.5H11.4017C10.6663 14.8216 9.85399 15 9 15C8.14601 15 7.3337 14.8216 6.59829 14.5ZM11.5 3.54404V2.5H6.5V3.54404C7.26106 3.19474 8.10779 3 9 3C9.89221 3 10.7389 3.19474 11.5 3.54404ZM9 13.5C11.4853 13.5 13.5 11.4853 13.5 9C13.5 6.51472 11.4853 4.5 9 4.5C6.51472 4.5 4.5 6.51472 4.5 9C4.5 11.4853 6.51472 13.5 9 13.5ZM9.61 9.27084L11.5831 10.41L10.9581 11.4925L8.37294 10H8.36V6H9.61V9.27084Z" fill="black" />
</svg>
