<svg width="18" height="18" viewBox="0 0 18 18" fill="none" xmlns="http://www.w3.org/2000/svg">
<path fill-rule="evenodd" clip-rule="evenodd" d="M15 6.25V3.5H3V6.25H15ZM15 7.5H3V14.5H15V7.5ZM2 2H16C16.2761 2 16.5 2.22386 16.5 2.5V15.5C16.5 15.7761 16.2761 16 16 16H2C1.72386 16 1.5 15.7761 1.5 15.5V2.5C1.5 2.22386 1.72386 2 2 2ZM4.5 9H8V13H4.5V9ZM9.5 9H13.5V10.5H9.5V9ZM9.5 11.5H13.5V13H9.5V11.5ZM4.625 5.5C4.27982 5.5 4 5.22018 4 4.875C4 4.52982 4.27982 4.25 4.625 4.25C4.97018 4.25 5.25 4.52982 5.25 4.875C5.25 5.22018 4.97018 5.5 4.625 5.5ZM6.625 5.5C6.27982 5.5 6 5.22018 6 4.875C6 4.52982 6.27982 4.25 6.625 4.25C6.97018 4.25 7.25 4.52982 7.25 4.875C7.25 5.22018 6.97018 5.5 6.625 5.5Z" fill="black" />
</svg>
